<svg xmlns="http://www.w3.org/2000/svg" viewBox="0 0 600 800">
<defs>
<clipPath id="beatrice-frame"><rect width="600" height="800"/></clipPath>
<clipPath id="beatrice-eyeL"><path d="M282 337.8 C275.1 326.1 263 321.1 249.1 320.2 C235.3 319.4 223.2 321.1 214.5 323.6 C218 336.9 230.1 346.1 247.4 347 C263 347.8 275.1 344.5 282 337.8 Z"/></clipPath>
<clipPath id="beatrice-eyeR"><path d="M318 338 C326 324 340 318 356 317 C372 316 386 318 396 321 C392 337 378 348 358 349 C340 350 326 346 318 338 Z"/></clipPath>
<path id="beatrice-bowU" d="M448 214 C430 176 436 120 474 100 C510 82 540 110 534 148 C528 184 488 208 448 214 Z"/>
<clipPath id="beatrice-bowU-c"><use href="#beatrice-bowU"/></clipPath>
<path id="beatrice-bowR" d="M450 214 C488 200 540 196 566 226 C590 256 572 292 540 290 C504 288 470 254 450 214 Z"/>
<clipPath id="beatrice-bowR-c"><use href="#beatrice-bowR"/></clipPath>
<path id="beatrice-tail" d="M452 222 C474 262 488 316 486 380 L502 368 L518 386 C522 320 504 262 466 216 Z"/>
<clipPath id="beatrice-tail-c"><use href="#beatrice-tail"/></clipPath>
<path id="beatrice-bun" d="M352 182 C350 128 392 92 440 96 C490 100 514 146 506 192 C498 240 456 266 410 260 C376 256 354 226 352 182 Z"/>
<clipPath id="beatrice-bun-c"><use href="#beatrice-bun"/></clipPath>
<path id="beatrice-nape" d="M396 214 C432 222 456 262 458 318 C460 366 450 404 432 428 C422 440 408 446 398 440 L384 300 Z"/>
<clipPath id="beatrice-nape-c"><use href="#beatrice-nape"/></clipPath>
<path id="beatrice-torso" d="M262 440 C264 480 262 514 258 538 C222 558 164 572 124 590 C88 608 70 668 64 820 L542 820 C536 668 518 608 482 592 C442 572 386 558 352 538 C346 508 346 470 350 432 Z"/>
<clipPath id="beatrice-torso-c"><use href="#beatrice-torso"/></clipPath>
<path id="beatrice-dress" d="M236 551 C204 566 160 578 124 592 C88 610 70 668 64 820 L544 820 C538 668 520 610 484 592 C448 578 404 566 372 551 C356 600 332 638 304 646 C276 638 252 600 236 551 Z"/>
<clipPath id="beatrice-dress-c"><use href="#beatrice-dress"/></clipPath>
<path id="beatrice-lace" d="M236 551 L244.6 574.5 L254.5 595.6 L265.5 613.9 L277.5 628.7 L290.4 639.6 L304 646 L317.6 639.6 L330.5 628.7 L342.5 613.9 L353.5 595.6 L363.4 574.5 L372 551 L362 539 Q363.3 552.7 353.4 562.2 Q353.8 575.1 343.5 583 Q343.1 595.1 332.5 600.9 Q331.1 611.9 320.5 615.4 Q317.9 625.3 307.6 625.9 Q303.3 634.4 294 632 Q293 624.6 300.4 625.9 Q290.1 625.3 287.5 615.4 Q276.9 611.9 275.5 600.9 Q264.9 595.1 264.5 583 Q254.2 575.1 254.6 562.2 Q244.7 552.7 246 539 Z"/>
<clipPath id="beatrice-lace-c"><use href="#beatrice-lace"/></clipPath>
<path id="beatrice-trim" d="M236 551 C252 600 276 638 304 646 C332 638 356 600 372 551 L382 556 C366 610 338 652 304 660 C270 652 242 610 226 556 Z"/>
<clipPath id="beatrice-trim-c"><use href="#beatrice-trim"/></clipPath>
<path id="beatrice-puffL" d="M236 560 C200 548 136 556 98 588 C60 620 50 672 66 712 C92 736 146 728 180 702 C212 676 230 622 236 560 Z"/>
<clipPath id="beatrice-puffL-c"><use href="#beatrice-puffL"/></clipPath>
<path id="beatrice-puffR" d="M372 560 C408 548 472 556 510 588 C548 620 558 672 542 712 C516 736 462 728 428 702 C396 676 378 622 372 560 Z"/>
<clipPath id="beatrice-puffR-c"><use href="#beatrice-puffR"/></clipPath>
<path id="beatrice-cuffL" d="M66 712 C92 736 146 728 180 702 L186 724 C152 752 92 758 62 734 Z"/>
<clipPath id="beatrice-cuffL-c"><use href="#beatrice-cuffL"/></clipPath>
<path id="beatrice-cuffR" d="M542 712 C516 736 462 728 428 702 L422 724 C456 752 516 758 546 734 Z"/>
<clipPath id="beatrice-cuffR-c"><use href="#beatrice-cuffR"/></clipPath>
<path id="beatrice-choker" d="M262 494 C290 505 320 505 348 493 L348 512 C320 524 290 524 261 514 Z"/>
<clipPath id="beatrice-choker-c"><use href="#beatrice-choker"/></clipPath>
<path id="beatrice-pipe" d="M192 830 L98 618 L105 615 L200 828 Z"/>
<clipPath id="beatrice-pipe-c"><use href="#beatrice-pipe"/></clipPath>
<path id="beatrice-bowl" d="M108 616 C104 606 98 600 92 597 L96 583 L72 583 L78 597 C88 601 96 609 101 619 Z"/>
<clipPath id="beatrice-bowl-c"><use href="#beatrice-bowl"/></clipPath>
<path id="beatrice-mouthpc" d="M182 812 L176 798 L186 794 L194 808 Z"/>
<clipPath id="beatrice-mouthpc-c"><use href="#beatrice-mouthpc"/></clipPath>
<path id="beatrice-face" d="M302 178 C358 178 400 216 404 272 C407 300 406 326 403 346 C398 376 388 400 372 420 C350 448 320 464 296 470 C288 472 280 471 274 467 C252 452 230 432 218 408 C208 386 203 364 202 344 C200 306 200 290 204 274 C214 214 250 178 302 178 Z"/>
<clipPath id="beatrice-face-c"><use href="#beatrice-face"/></clipPath>
<path id="beatrice-hf" d="M214 310 C196 288 192 250 202 218 C218 178 256 152 310 146 C366 142 410 164 432 200 C446 228 446 270 428 304 L406 314 Q390.1 303.1 388 284 Q374.6 282.8 372 296 Q356.8 282.4 356 262 Q343.3 257.8 338 270 Q322.8 256 318 236 Q312.6 232.1 306 232 Q293.6 244.5 292 262 Q280.4 265.2 276 254 Q257.3 267.3 254 290 Q242.4 293.2 238 282 Q219.2 290.1 214 310 Z"/>
<clipPath id="beatrice-hf-c"><use href="#beatrice-hf"/></clipPath>
<path id="beatrice-lockR" d="M397.9 295.6 C400.5 302.4 412.3 321.6 413 336.7 C413.7 351.8 401.6 369.3 402 386 C402.4 402.7 411.7 421.9 415.3 437.2 C419 452.5 423.5 466 424 477.7 C424.5 489.3 420.9 501.2 418.3 506.9 C415.7 512.7 411 512.6 408.3 512.3 C405.6 511.9 402.5 507.8 401.9 505 C401.4 502.2 402.6 496.8 404.9 495.3 C407.1 493.8 413.7 495.8 415.5 495.9 L416.5 492.1 C413.6 490.9 404.2 482.2 399.1 484.7 C394 487.2 385.3 499.2 386.1 507 C386.8 514.8 395.1 529.4 403.7 531.7 C412.3 534.1 429.7 530 437.7 521.1 C445.8 512.2 450.8 493.4 452 478.3 C453.2 463.3 447.7 446.2 444.7 430.8 C441.7 415.4 433.6 401.9 434 386 C434.4 370.1 447.6 352.2 447 335.3 C446.3 318.4 432.9 292.9 430.1 284.4 Z"/>
<clipPath id="beatrice-lockR-c"><use href="#beatrice-lockR"/></clipPath>
<path id="beatrice-lockL" d="M196.5 286.5 C194.4 294.7 184.2 319.2 184 335.7 C183.8 352.3 195.1 369.8 195 385.7 C194.9 401.7 186.1 416.4 183.3 431.5 C180.4 446.5 176.9 462.3 178 476.3 C179.1 490.4 182.7 507.9 189.8 515.7 C196.9 523.6 213.1 526.1 220.5 523.6 C228 521 234.2 507.4 234.5 500.4 C234.8 493.4 226.8 483.6 222.2 481.5 C217.7 479.5 209.8 487 207.4 488.1 L208.6 491.9 C210.2 491.7 215.6 489.2 217.8 490.5 C219.9 491.8 221.9 496.6 221.5 499.6 C221.1 502.6 218 507.6 215.5 508.4 C212.9 509.2 208.4 509.7 206.2 504.3 C203.9 498.8 201.6 487 202 475.7 C202.4 464.4 205.6 451.5 208.7 436.5 C211.9 421.6 220.5 403 221 386.3 C221.5 369.6 211.6 351.7 212 336.3 C212.4 320.8 221.6 300.7 223.5 293.5 Z"/>
<clipPath id="beatrice-lockL-c"><use href="#beatrice-lockL"/></clipPath>
</defs>
<g clip-path="url(#beatrice-frame)"><g class="p-hair-back" transform="rotate(4 300 420)">
<use href="#beatrice-tail" fill="#EC9BB6"/>
<g clip-path="url(#beatrice-tail-c)"><path d="M466 216 C500 262 516 320 512 386 L540 386 L540 216 Z" fill="#4a1a2a" opacity="0.3"/></g>
<use href="#beatrice-tail" fill="none" stroke="#0b0809" stroke-width="5" stroke-linejoin="round"/>
<use href="#beatrice-bowR" fill="#EC9BB6"/>
<g clip-path="url(#beatrice-bowR-c)"><path d="M450 214 C486 238 520 262 560 266 L600 266 L600 320 L450 320 Z" fill="#4a1a2a" opacity="0.3"/><path d="M470 222 C500 222 530 228 552 246" fill="none" stroke="#0b0809" stroke-width="2.2" stroke-linecap="round" stroke-linejoin="round" opacity="0.6"/></g>
<use href="#beatrice-bowR" fill="none" stroke="#0b0809" stroke-width="5" stroke-linejoin="round"/>
<use href="#beatrice-bowU" fill="#EC9BB6"/>
<g clip-path="url(#beatrice-bowU-c)"><path d="M448 214 C470 190 500 168 530 160 L560 160 L560 230 Z" fill="#4a1a2a" opacity="0.3"/><path d="M454 196 C460 160 474 130 494 116" fill="none" stroke="#0b0809" stroke-width="2.2" stroke-linecap="round" stroke-linejoin="round" opacity="0.6"/></g>
<use href="#beatrice-bowU" fill="none" stroke="#0b0809" stroke-width="5" stroke-linejoin="round"/>
<use href="#beatrice-nape" fill="#E2AE4C"/>
<g clip-path="url(#beatrice-nape-c)"><path d="M420 260 C440 300 446 370 432 430 L480 430 L480 260 Z" fill="#4a1a2a" opacity="0.3"/><path d="M410 432 C426 396 432 340 420 280 M428 420 C442 384 448 340 442 300" fill="none" stroke="#0b0809" stroke-width="2.4" stroke-linecap="round" stroke-linejoin="round"/></g>
<use href="#beatrice-nape" fill="none" stroke="#0b0809" stroke-width="5" stroke-linejoin="round"/>
<use href="#beatrice-bun" fill="#E2AE4C"/>
<g clip-path="url(#beatrice-bun-c)"><path d="M470 110 C506 140 512 200 488 236 C466 262 430 268 400 258 L520 258 L520 100 Z" fill="#4a1a2a" opacity="0.3"/><path d="M368 168 C372 128 404 104 440 104 L436 114 L426 112 L420 128 L412 118 L398 128 L392 146 L386 134 L378 152 L374 170 Z" fill="#F4DFAF"/><path d="M372 196 C364 150 398 116 440 118 C480 120 498 160 486 198 C474 232 434 246 404 230 C380 216 382 180 404 166 C426 152 458 164 458 190 M380 228 C392 246 418 254 446 248" fill="none" stroke="#0b0809" stroke-width="2.4" stroke-linecap="round" stroke-linejoin="round"/></g>
<use href="#beatrice-bun" fill="none" stroke="#0b0809" stroke-width="5" stroke-linejoin="round"/>
<g><circle cx="474" cy="236" r="16" fill="#B8162E" stroke="#0b0809" stroke-width="3.5"/>
<path d="M474 220 A16 16 0 0 1 474 252 C480.4 240.8 480.4 231.2 474 220 Z" fill="#4a1a2a" opacity="0.35"/>
<path d="M471.6 237.6 C466 229.6 478.8 226.4 481.2 234.4 C483.6 243.2 469.2 246.4 464.4 239.2 M470.8 222.4 C461.2 226.4 458.8 239.2 465.2 247.2" fill="none" stroke="#0b0809" stroke-width="2" stroke-linecap="round" stroke-linejoin="round" opacity="0.85"/><circle cx="498" cy="204" r="13" fill="#B8162E" stroke="#0b0809" stroke-width="3.5"/>
<path d="M498 191 A13 13 0 0 1 498 217 C503.2 207.9 503.2 200.1 498 191 Z" fill="#4a1a2a" opacity="0.35"/>
<path d="M496.1 205.3 C491.5 198.8 501.9 196.2 503.9 202.7 C505.8 209.9 494.1 212.5 490.2 206.6 M495.4 193 C487.6 196.2 485.7 206.6 490.9 213.1" fill="none" stroke="#0b0809" stroke-width="2" stroke-linecap="round" stroke-linejoin="round" opacity="0.85"/><circle cx="458" cy="268" r="12" fill="#B8162E" stroke="#0b0809" stroke-width="3.5"/>
<path d="M458 256 A12 12 0 0 1 458 280 C462.8 271.6 462.8 264.4 458 256 Z" fill="#4a1a2a" opacity="0.35"/>
<path d="M456.2 269.2 C452 263.2 461.6 260.8 463.4 266.8 C465.2 273.4 454.4 275.8 450.8 270.4 M455.6 257.8 C448.4 260.8 446.6 270.4 451.4 276.4" fill="none" stroke="#0b0809" stroke-width="2" stroke-linecap="round" stroke-linejoin="round" opacity="0.85"/></g>
</g></g>
<g clip-path="url(#beatrice-frame)"><g class="p-body">
<use href="#beatrice-torso" fill="#F7E4D6"/>
<g clip-path="url(#beatrice-torso-c)"><path d="M250 430 L366 416 L366 470 C340 488 300 496 250 490 Z" fill="#4a1a2a" opacity="0.3"/><path d="M356 470 C346 498 336 530 324 562 C344 558 364 550 384 542 L384 470 Z" fill="#4a1a2a" opacity="0.22"/><path d="M300 600 C318 612 330 630 334 646 L300 646 Z" fill="#4a1a2a" opacity="0.2"/></g>
<use href="#beatrice-torso" fill="none" stroke="#0b0809" stroke-width="5" stroke-linejoin="round"/>
<path d="M276 588 C258 582 240 578 222 578 M334 588 C352 582 370 578 388 578" fill="none" stroke="#0b0809" stroke-width="2.4" stroke-linecap="round" stroke-linejoin="round"/>
<use href="#beatrice-dress" fill="#7A1426"/>
<g clip-path="url(#beatrice-dress-c)"><path d="M430 586 C486 612 510 690 516 820 L600 820 L600 586 Z" fill="#4a1a2a" opacity="0.35"/><path d="M372 551 C356 604 330 642 304 652 L304 680 C344 666 372 630 390 570 Z" fill="#4a1a2a" opacity="0.35"/><path d="M150 640 C140 700 134 760 132 820 L170 820 C170 760 176 700 186 650 Z" fill="#1d1a1c"/><path d="M458 640 C468 700 474 760 476 820 L438 820 C438 760 432 700 422 650 Z" fill="#1d1a1c"/><path d="M150 640 C140 700 134 760 132 820 M186 650 C176 700 170 760 170 820 M458 640 C468 700 474 760 476 820 M422 650 C432 700 438 760 438 820" fill="none" stroke="#D4A72C" stroke-width="2.2" stroke-linecap="round" stroke-linejoin="round"/><path d="M304 680 L304 820 M286 700 L322 724 M322 700 L286 724 M286 748 L322 772 M322 748 L286 772 M286 796 L322 820 M322 796 L286 820" fill="none" stroke="#D4A72C" stroke-width="2.4" stroke-linecap="round" stroke-linejoin="round"/><path d="M240 700 C252 740 258 780 260 820 M372 700 C360 740 352 780 350 820" fill="none" stroke="#3a0a14" stroke-width="2.4" stroke-linecap="round" stroke-linejoin="round" opacity="0.5"/></g>
<use href="#beatrice-dress" fill="none" stroke="#0b0809" stroke-width="5" stroke-linejoin="round"/>
<use href="#beatrice-lace" fill="#F6ECEF"/>
<g clip-path="url(#beatrice-lace-c)"><path d="M304 646 C332 638 356 600 372 551 L392 551 L392 680 L304 680 Z" fill="#4a1a2a" opacity="0.16"/></g>
<use href="#beatrice-lace" fill="none" stroke="#0b0809" stroke-width="2.4" stroke-linejoin="round"/>
<g class="p-accent"><use href="#beatrice-trim" fill="#D4A72C"/>
<g clip-path="url(#beatrice-trim-c)"><path d="M304 646 C332 638 356 600 372 551 L392 551 L392 680 L304 680 Z" fill="#4a1a2a" opacity="0.3"/></g>
<use href="#beatrice-trim" fill="none" stroke="#0b0809" stroke-width="2.4" stroke-linejoin="round"/></g>
<use href="#beatrice-puffL" fill="#7A1426"/>
<g clip-path="url(#beatrice-puffL-c)"><path d="M98 588 C60 620 50 672 66 712 C92 736 146 728 180 702 L180 760 L40 760 L40 588 Z" fill="#4a1a2a" opacity="0"/><path d="M180 600 C200 640 196 680 176 704 L240 704 L240 600 Z" fill="#4a1a2a" opacity="0.3"/><path d="M130 566 C118 600 112 650 116 724 L136 724 C132 650 138 600 150 562 Z" fill="#1d1a1c"/><path d="M196 566 C188 610 180 660 168 708 L184 704 C198 660 206 610 210 566 Z" fill="#1d1a1c"/><path d="M98 600 C88 640 86 680 92 724 M164 566 C160 610 156 660 150 720" fill="none" stroke="#0b0809" stroke-width="2.2" stroke-linecap="round" stroke-linejoin="round" opacity="0.6"/></g>
<use href="#beatrice-puffL" fill="none" stroke="#0b0809" stroke-width="5" stroke-linejoin="round"/>
<use href="#beatrice-puffR" fill="#7A1426"/>
<g clip-path="url(#beatrice-puffR-c)"><path d="M372 560 C408 548 472 556 510 588 C548 620 558 672 542 712 C516 736 462 728 428 702 L600 702 L600 560 L520 560 C520 620 500 680 450 712 C500 690 520 640 510 588 Z" fill="#4a1a2a" opacity="0"/><path d="M470 560 C520 590 548 640 544 712 L600 712 L600 560 Z" fill="#4a1a2a" opacity="0.35"/><path d="M478 566 C490 600 496 650 492 724 L472 724 C476 650 470 600 458 562 Z" fill="#1d1a1c"/><path d="M412 566 C420 610 428 660 440 708 L424 704 C410 660 402 610 398 566 Z" fill="#1d1a1c"/><path d="M510 600 C520 640 522 680 516 724 M444 566 C448 610 452 660 458 720" fill="none" stroke="#0b0809" stroke-width="2.2" stroke-linecap="round" stroke-linejoin="round" opacity="0.6"/></g>
<use href="#beatrice-puffR" fill="none" stroke="#0b0809" stroke-width="5" stroke-linejoin="round"/>
<use href="#beatrice-cuffL" fill="#1d1a1c"/>
<g clip-path="url(#beatrice-cuffL-c)"><path d="M66 712 C92 736 146 728 180 702 L182 708 C150 734 94 742 64 720 Z" fill="#3d383b"/><path d="M64 722 C94 746 152 740 184 712" fill="none" stroke="#D4A72C" stroke-width="3" stroke-linecap="round" stroke-linejoin="round"/></g>
<use href="#beatrice-cuffL" fill="none" stroke="#0b0809" stroke-width="5" stroke-linejoin="round"/>
<use href="#beatrice-cuffR" fill="#1d1a1c"/>
<g clip-path="url(#beatrice-cuffR-c)"><path d="M542 712 C516 736 462 728 428 702 L426 708 C458 734 514 742 544 720 Z" fill="#3d383b"/><path d="M544 722 C514 746 456 740 424 712" fill="none" stroke="#D4A72C" stroke-width="3" stroke-linecap="round" stroke-linejoin="round"/></g>
<use href="#beatrice-cuffR" fill="none" stroke="#0b0809" stroke-width="5" stroke-linejoin="round"/>
<use href="#beatrice-choker" fill="#1d1a1c"/>
<g clip-path="url(#beatrice-choker-c)"><path d="M262 498 C290 509 320 509 348 497 L348 502 C320 513 290 513 262 503 Z" fill="#3d383b"/></g>
<use href="#beatrice-choker" fill="none" stroke="#0b0809" stroke-width="4" stroke-linejoin="round"/>
<g class="p-accent"><path d="M305 508 L314 520 L305 534 L296 520 Z" fill="#D4A72C" stroke="#0b0809" stroke-width="3" stroke-linejoin="round"/></g>
<path d="M303 514 L306 514 L308 520 L303 522 Z" fill="#fff" opacity="0.8"/>
<g class="p-accent"><use href="#beatrice-pipe" fill="#D4A72C"/>
<g clip-path="url(#beatrice-pipe-c)"><path d="M196 830 L102 616 L106 615 L200 828 Z" fill="#4a1a2a" opacity="0.3"/></g>
<use href="#beatrice-pipe" fill="none" stroke="#0b0809" stroke-width="3" stroke-linejoin="round"/><use href="#beatrice-bowl" fill="#D4A72C"/>
<g clip-path="url(#beatrice-bowl-c)"><path d="M96 583 L92 597 C98 600 104 606 108 616 L112 616 L112 583 Z" fill="#4a1a2a" opacity="0.3"/></g>
<use href="#beatrice-bowl" fill="none" stroke="#0b0809" stroke-width="3" stroke-linejoin="round"/></g>
<path d="M76 584 C78 588 90 588 94 584 C90 582 80 582 76 584 Z" fill="#5b3a10"/>
<path d="M118 660 L125 657 M168 772 L175 769" fill="none" stroke="#0b0809" stroke-width="2.2" stroke-linecap="round" stroke-linejoin="round"/>
</g></g>
<g class="p-head" transform="rotate(4 300 420)">
<path d="M398 332 C404 318 422 316 428 330 C433 346 426 366 416 378 C411 385 402 385 398 380 Z" fill="#F7E4D6" stroke="#0b0809" stroke-width="4.5" stroke-linejoin="round"/>
<path d="M407 338 C415 335 420 344 418 354 C416 362 411 367 406 367 M409 351 C412 351 414 354 412 357" fill="none" stroke="#0b0809" stroke-width="2.2" stroke-linecap="round" stroke-linejoin="round"/>
<use href="#beatrice-face" fill="#F7E4D6"/>
<g clip-path="url(#beatrice-face-c)"><path d="M412 328 L394 298 L378 310 L362 276 L344 284 L324 250 L312 246 L298 276 L282 268 L260 304 L244 296 L220 324 L190 320 L190 160 L430 160 L430 320 Z" fill="#4a1a2a" opacity="0.25"/><path d="M392 300 C402 344 396 388 374 420 C352 448 324 464 292 474 L420 474 L420 300 Z" fill="#4a1a2a" opacity="0.25"/><path d="M287 368 L297 389 L289 393 Z" fill="#4a1a2a" opacity="0.25"/></g>
<use href="#beatrice-face" fill="none" stroke="#0b0809" stroke-width="5" stroke-linejoin="round"/>
<g class="p-eye">
<path class="p-sclera" d="M282 337.8 C275.1 326.1 263 321.1 249.1 320.2 C235.3 319.4 223.2 321.1 214.5 323.6 C218 336.9 230.1 346.1 247.4 347 C263 347.8 275.1 344.5 282 337.8 Z" fill="#fbf7f4"/>
<g clip-path="url(#beatrice-eyeL)"><g class="p-iris">
<ellipse cx="252" cy="339" rx="15" ry="19" fill="#3C6FD1"/>
<path d="M237 335.6 A15 19 0 0 1 267 335.6 C259.5 329.5 244.5 329.5 237 335.6 Z" fill="#1c3c82" opacity=".6"/>
<path d="M241.5 345.7 C246 356.1 258 356.1 262.5 345.7 C256.5 350.4 247.5 350.4 241.5 345.7 Z" fill="#b4c7ef" opacity="0.85"/>
<ellipse cx="252" cy="340" rx="6.3" ry="9.5" fill="#141018"/>
<ellipse cx="252" cy="339" rx="15" ry="19" fill="none" stroke="#1c3c82" stroke-width="2.5"/>
<ellipse cx="246.6" cy="331.8" rx="4.5" ry="5.1" fill="#fff"/>
<circle cx="258.3" cy="346.2" r="2.4" fill="#fff"/>
</g><path d="M192 289 H312 V335 C276 325 228 325 192 341 Z" fill="#3a2030" opacity="0.26"/></g>
<path d="M289.8 341.9 C282.9 322.7 266.4 312.7 248.3 311.9 C231.8 311.1 218 313.6 209.3 316.1 L199 306 L202.4 317.7 L193.8 316.9 L207.6 326.9 L214.5 324.4 C223.2 321.1 235.3 319.4 249.1 320.2 C263 321.1 275.1 326.1 282 339.4 Z" fill="#0b0809"/>
<path d="M271.6 345.3 C261.2 349.5 249.1 349.5 237 347.8 C226.6 345.3 219.7 338.6 216.3 331.1" fill="none" stroke="#0b0809" stroke-width="2.2" stroke-linecap="round" stroke-linejoin="round"/>
<path d="M275.1 306.9 C257.8 299.4 233.6 299.4 215.4 306.9" fill="none" stroke="#0b0809" stroke-width="2" stroke-linecap="round" stroke-linejoin="round" opacity="0.7"/>
</g>
<g class="p-eye">
<path class="p-sclera" d="M318 338 C326 324 340 318 356 317 C372 316 386 318 396 321 C392 337 378 348 358 349 C340 350 326 346 318 338 Z" fill="#fbf7f4"/>
<g clip-path="url(#beatrice-eyeR)"><g class="p-iris">
<ellipse cx="355" cy="337" rx="17" ry="21" fill="#3C6FD1"/>
<path d="M338 333.2 A17 21 0 0 1 372 333.2 C363.5 326.5 346.5 326.5 338 333.2 Z" fill="#1c3c82" opacity=".6"/>
<path d="M343.1 344.4 C348.2 355.9 361.8 355.9 366.9 344.4 C360.1 349.6 349.9 349.6 343.1 344.4 Z" fill="#b4c7ef" opacity="0.85"/>
<ellipse cx="355" cy="338" rx="7.1" ry="10.5" fill="#141018"/>
<ellipse cx="355" cy="337" rx="17" ry="21" fill="none" stroke="#1c3c82" stroke-width="2.5"/>
<ellipse cx="348.9" cy="329" rx="5.1" ry="5.7" fill="#fff"/>
<circle cx="362.1" cy="345" r="2.4" fill="#fff"/>
</g><path d="M295 287 H415 V333 C379 323 331 323 295 339 Z" fill="#3a2030" opacity="0.26"/></g>
<path d="M309 343 C317 320 336 308 357 307 C376 306 392 309 402 312 L414 300 L410 314 L420 313 L404 325 L396 322 C386 318 372 316 356 317 C340 318 326 324 318 340 Z" fill="#0b0809"/>
<path d="M330 347 C342 352 356 352 370 350 C382 347 390 339 394 330" fill="none" stroke="#0b0809" stroke-width="2.2" stroke-linecap="round" stroke-linejoin="round"/>
<path d="M326 301 C346 292 374 292 395 301" fill="none" stroke="#0b0809" stroke-width="2" stroke-linecap="round" stroke-linejoin="round" opacity="0.7"/>
</g>
<path d="M324 296 C340 282 364 268 396 266 L395 272 C366 275 344 286 328 301 Z M222 284 C238 280 258 284 276 296 L273 301 C256 290 240 287 223 290 Z" fill="#a0682c"/>
<path d="M288 374 C286 381 284 387 283 391 C287 393 291 394 294 393" fill="none" stroke="#0b0809" stroke-width="2.3" stroke-linecap="round" stroke-linejoin="round"/>
<path d="M262 420 C282 428 306 426 330 407 C326 432 308 448 290 448 C276 447 266 436 262 420 Z" fill="#6b1a2c"/>
<path d="M265 422 C283 429 306 427 327 411 L325 419 C306 433 284 435 268 429 Z" fill="#fff"/>
<path d="M278 443 C288 436 304 434 316 438 C306 447 290 450 278 443 Z" fill="#e8798f"/>
<path d="M262 420 C282 428 306 426 330 407 C326 432 308 448 290 448 C276 447 266 436 262 420 Z" fill="none" stroke="#0b0809" stroke-width="2.5" stroke-linejoin="round"/>
<path d="M258 416 L263 421 M329 407 L336 401" fill="none" stroke="#0b0809" stroke-width="2.2" stroke-linecap="round" stroke-linejoin="round"/>
<path d="M274 451 C288 459 306 457 318 447 C308 453 288 456 274 451 Z" fill="#c2283e" opacity="0.9"/>
<g class="p-hair-front">
<use href="#beatrice-lockL" fill="#E2AE4C"/>
<g clip-path="url(#beatrice-lockL-c)"><path d="M216 290 C206 336 218 386 206 434 C200 470 206 500 224 506 L250 520 L250 290 Z" fill="#4a1a2a" opacity="0.3"/><path d="M206 314 C200 350 208 390 198 432 C192 466 196 496 212 506" fill="none" stroke="#0b0809" stroke-width="2.2" stroke-linecap="round" stroke-linejoin="round" opacity="0.7"/></g>
<use href="#beatrice-lockL" fill="none" stroke="#0b0809" stroke-width="5" stroke-linejoin="round"/>
<use href="#beatrice-lockR" fill="#E2AE4C"/>
<g clip-path="url(#beatrice-lockR-c)"><path d="M428 296 C442 340 430 390 442 436 C450 476 440 512 414 528 L480 528 L480 296 Z" fill="#4a1a2a" opacity="0.3"/><path d="M412 312 C422 350 410 392 420 436 C428 470 424 500 410 506" fill="none" stroke="#0b0809" stroke-width="2.2" stroke-linecap="round" stroke-linejoin="round" opacity="0.7"/></g>
<use href="#beatrice-lockR" fill="none" stroke="#0b0809" stroke-width="5" stroke-linejoin="round"/>
<use href="#beatrice-hf" fill="#E2AE4C"/>
<g clip-path="url(#beatrice-hf-c)"><path d="M410 170 C436 206 442 262 428 304 L406 314 L388 284 L392 250 L380 214 Z" fill="#4a1a2a" opacity="0.3"/><path d="M306 232 L292 262 L282 232 Z" fill="#4a1a2a" opacity="0.3"/><path d="M200 246 C210 200 250 168 300 160 C332 156 360 160 382 170 L376 182 L362 178 L356 196 L346 180 L328 182 L322 204 L312 184 L292 188 L284 212 L276 192 L258 202 L250 226 L244 206 L230 220 L222 246 L216 228 L206 252 Z" fill="#F4DFAF"/></g>
<use href="#beatrice-hf" fill="none" stroke="#0b0809" stroke-width="5" stroke-linejoin="round"/>
<g clip-path="url(#beatrice-hf-c)"><path d="M388 284 C390 244 372 210 346 190 M356 262 C352 230 336 206 318 194 M292 262 C290 232 296 208 312 190 M254 290 C254 252 270 222 298 200 M238 282 C230 250 236 220 256 196 M372 296 C394 272 404 238 400 206 M318 236 C330 214 352 196 380 186 M306 232 C292 214 276 202 252 194" fill="none" stroke="#0b0809" stroke-width="2.4" stroke-linecap="round" stroke-linejoin="round"/></g>
</g>
</g>
</svg>
