<svg xmlns="http://www.w3.org/2000/svg" viewBox="0 0 600 800">
  <defs>
    <clipPath id="higuruma-frame"><rect width="600" height="800"/></clipPath>
    <path id="higuruma-hf" d="M204,300Q191.6 288.7 190 272 Q185.1 251.8 196 234 Q194.7 213.6 210 200 Q215.4 178.5 236 170 Q250 150.3 274 148 Q294.9 133.2 320 138 Q344.3 131.1 366 144 Q388.4 146.1 402 164 Q422.4 171.6 430 192 Q448.1 200.8 454 220 Q442.2 225.1 442 238 Q459.6 240.4 468 256 Q453.3 259.8 448 274 Q461.2 283.7 462 300 Q446.9 299.7 438 312 Q437.7 322.6 430 330 C424 318 416 306 410 290 C404 268 392 246 372 232 C362 250 356 270 352 290 C348 270 346 250 350 226 C338 222 326 220 314 220 C306 244 296 270 282 296 C284 270 290 244 296 222 C284 224 272 228 262 234 C254 252 244 268 232 280 C236 262 240 248 246 240 C230 252 218 270 212 290 C210 296 207 299 204 300 Z"/>
    <clipPath id="higuruma-hf-c"><use href="#higuruma-hf"/></clipPath>
    <path id="higuruma-hb" d="M196 300 C196 230 242 172 304 166 C372 160 428 210 440 290 L444 330 L198 330 Z"/>
    <clipPath id="higuruma-hb-c"><use href="#higuruma-hb"/></clipPath>
    <path id="higuruma-torso" d="M252 446 C254 482 252 512 246 536 C204 552 146 566 108 590 C66 616 46 688 40 820 L566 820 C560 688 540 616 498 590 C460 566 404 552 362 536 C356 504 356 472 360 436 Z"/>
    <clipPath id="higuruma-torso-c"><use href="#higuruma-torso"/></clipPath>
    <path id="higuruma-shirt" d="M240 540 C214 556 160 572 120 592 C80 616 60 680 54 820 L552 820 C546 680 526 616 486 592 C448 572 394 556 368 540 C352 556 330 566 304 568 C278 566 256 556 240 540 Z"/>
    <clipPath id="higuruma-shirt-c"><use href="#higuruma-shirt"/></clipPath>
    <path id="higuruma-cl" d="M250 518 C260 542 280 560 301 570 C292 590 280 608 266 622 C252 600 242 576 238 550 C240 536 244 526 250 518 Z"/>
    <clipPath id="higuruma-cl-c"><use href="#higuruma-cl"/></clipPath>
    <path id="higuruma-cr" d="M358 518 C348 542 328 560 307 570 C316 590 328 608 342 622 C356 600 366 576 370 550 C368 536 364 526 358 518 Z"/>
    <clipPath id="higuruma-cr-c"><use href="#higuruma-cr"/></clipPath>
    <path id="higuruma-knot" d="M292 565 C299 560 309 560 316 565 L311 594 C307 598 301 598 297 594 Z"/>
    <clipPath id="higuruma-knot-c"><use href="#higuruma-knot"/></clipPath>
    <path id="higuruma-tie" d="M297 592 C301 596 307 596 311 592 C317 650 322 740 326 820 L282 820 C286 740 291 650 297 592 Z"/>
    <clipPath id="higuruma-tie-c"><use href="#higuruma-tie"/></clipPath>
    <path id="higuruma-suitL" d="M246 536 C206 552 150 566 110 590 C68 616 48 688 42 820 L222 820 C226 750 234 690 246 640 C252 610 254 572 246 536 Z"/>
    <clipPath id="higuruma-suitL-c"><use href="#higuruma-suitL"/></clipPath>
    <path id="higuruma-suitR" d="M362 536 C402 552 458 566 498 590 C540 616 560 688 566 820 L386 820 C382 750 374 690 362 640 C356 610 354 572 362 536 Z"/>
    <clipPath id="higuruma-suitR-c"><use href="#higuruma-suitR"/></clipPath>
    <path id="higuruma-lapL" d="M248 538 C254 580 252 620 246 660 L238 716 C216 690 196 662 176 632 L200 618 L184 594 C206 576 228 556 248 538 Z"/>
    <clipPath id="higuruma-lapL-c"><use href="#higuruma-lapL"/></clipPath>
    <path id="higuruma-lapR" d="M360 538 C354 580 356 620 362 660 L370 716 C392 690 412 662 432 632 L408 618 L424 594 C402 576 380 556 360 538 Z"/>
    <clipPath id="higuruma-lapR-c"><use href="#higuruma-lapR"/></clipPath>
    <path id="higuruma-face" d="M302 172 C360 172 404 212 408 270 C411 300 411 326 408 346 C405 376 400 400 391 420 C370 452 326 480 298 492 C290 495 282 494 276 489 C254 470 228 446 216 416 C206 392 200 368 200 344 C197 306 197 288 201 272 C212 210 250 172 302 172 Z"/>
    <clipPath id="higuruma-face-c"><use href="#higuruma-face"/></clipPath>
    <clipPath id="higuruma-eyeL"><path d="M278 337.2 C272.9 329.5 261 325.3 247.4 324.4 C233.8 323.6 223.6 325.3 216.8 331.2 C220.2 342.3 232.1 348.2 247.4 349.1 C262.7 349.9 272.9 345.7 278 337.2 Z"/></clipPath>
    <clipPath id="higuruma-eyeR"><path d="M320 337 C326 328 340 323 356 322 C372 321 384 323 392 330 C388 343 374 350 356 351 C338 352 326 347 320 337 Z"/></clipPath>
  </defs>
  <g clip-path="url(#higuruma-frame)">
    <g class="p-hair-back">
      <use href="#higuruma-hb" fill="#4a3426"/>
      <g clip-path="url(#higuruma-hb-c)"><path d="M0 0H600V820H0Z" fill="#4a1a2a" opacity="0.3"/></g>
      <use href="#higuruma-hb" fill="none" stroke="#0b0809" stroke-width="5" stroke-linejoin="round"/>
    </g>
  </g>
  <g clip-path="url(#higuruma-frame)">
    <g class="p-body">
      
      <use href="#higuruma-torso" fill="#c9a07e"/>
      <g clip-path="url(#higuruma-torso-c)"><path d="M236 430 L384 404 L384 468 C366 482 348 494 326 504 C300 512 270 512 236 504 Z" fill="#4a1a2a" opacity="0.3"/><path d="M384 466 C368 476 354 486 344 500 C338 520 330 544 318 572 C344 564 372 548 404 534 L404 466 Z" fill="#4a1a2a" opacity="0.24"/></g>
      <use href="#higuruma-torso" fill="none" stroke="#0b0809" stroke-width="5" stroke-linejoin="round"/>
      <use href="#higuruma-shirt" fill="#f2f2ee"/>
      <g clip-path="url(#higuruma-shirt-c)"><path d="M368 540 C352 562 330 574 306 578 L306 600 C338 596 364 580 386 556 Z" fill="#4a1a2a" opacity="0.16"/><path d="M330 610 C342 690 346 760 344 820 L420 820 L420 600 Z" fill="#4a1a2a" opacity="0.16"/></g>
      <use href="#higuruma-shirt" fill="none" stroke="#0b0809" stroke-width="5" stroke-linejoin="round"/>
      <use href="#higuruma-tie" fill="#2a2d36"/>
      <g clip-path="url(#higuruma-tie-c)"><path d="M300 604 C298 664 294 744 290 820 L298 820 C300 744 302 664 303 604 Z" fill="#4a4f5c"/><path d="M306 600 C312 660 316 740 318 820 L330 820 L330 600 Z" fill="#000" opacity="0.35"/></g>
      <use href="#higuruma-tie" fill="none" stroke="#0b0809" stroke-width="5" stroke-linejoin="round"/>
      <use href="#higuruma-knot" fill="#2a2d36"/>
      <g clip-path="url(#higuruma-knot-c)"><path d="M296 567 C299 565 303 565 305 566 L302 590 L299 590 Z" fill="#4a4f5c"/></g>
      <use href="#higuruma-knot" fill="none" stroke="#0b0809" stroke-width="4" stroke-linejoin="round"/>
      <use href="#higuruma-cl" fill="#f2f2ee"/>
      <g clip-path="url(#higuruma-cl-c)"><path d="M301 570 C292 590 280 608 266 622 L262 610 C276 596 288 582 296 566 Z" fill="#4a1a2a" opacity="0.12"/></g>
      <use href="#higuruma-cl" fill="none" stroke="#0b0809" stroke-width="4.5" stroke-linejoin="round"/>
      <use href="#higuruma-cr" fill="#f2f2ee"/>
      <g clip-path="url(#higuruma-cr-c)"><path d="M307 570 C316 590 328 608 342 622 L356 612 C352 584 364 552 358 524 Z" fill="#4a1a2a" opacity="0.18"/></g>
      <use href="#higuruma-cr" fill="none" stroke="#0b0809" stroke-width="4.5" stroke-linejoin="round"/>
      <use href="#higuruma-suitL" fill="#1d1a1c"/>
      <g clip-path="url(#higuruma-suitL-c)"><path d="M104 600 C76 624 60 676 52 740 L66 742 C74 684 90 640 120 612 Z" fill="#3d383b"/><path d="M242 650 L234 724 C212 698 192 670 172 640 L162 654 C184 688 206 720 230 748 Z" fill="#000" opacity="0.4"/></g>
      <use href="#higuruma-suitL" fill="none" stroke="#0b0809" stroke-width="5" stroke-linejoin="round"/>
      <use href="#higuruma-suitR" fill="#1d1a1c"/>
      <g clip-path="url(#higuruma-suitR-c)"><path d="M366 650 C362 700 364 760 368 820 L376 820 C372 760 372 700 376 650 Z" fill="#3d383b"/></g>
      <use href="#higuruma-suitR" fill="none" stroke="#0b0809" stroke-width="5" stroke-linejoin="round"/>
      <path d="M150 650 C140 700 136 760 138 820 M196 700 C190 740 188 780 190 820 M120 760 C140 750 160 752 176 764" fill="none" stroke="#4a4446" stroke-width="2.5" stroke-linecap="round" stroke-linejoin="round"/>
      <path d="M458 650 C468 700 472 760 470 820 M420 720 C440 712 460 716 476 728" fill="none" stroke="#4a4446" stroke-width="2.5" stroke-linecap="round" stroke-linejoin="round"/>
      <use href="#higuruma-lapL" fill="#1d1a1c"/>
      <g clip-path="url(#higuruma-lapL-c)"><path d="M244 556 C226 570 206 584 186 596 L190 606 C210 592 230 578 248 566 Z" fill="#3d383b"/></g>
      <use href="#higuruma-lapL" fill="none" stroke="#0b0809" stroke-width="5" stroke-linejoin="round"/>
      <use href="#higuruma-lapR" fill="#1d1a1c"/>
      <g clip-path="url(#higuruma-lapR-c)"><path d="M362 560 C380 574 400 588 420 600 L416 610 C396 596 378 582 360 570 Z" fill="#3d383b"/></g>
      <use href="#higuruma-lapR" fill="none" stroke="#0b0809" stroke-width="5" stroke-linejoin="round"/>
      <g class="p-accent">
        <path d="M405 640 L401.9 642 L404 645 L400.4 645.6 L401.2 649.2 L397.6 648.4 L397 652 L394 649.9 L392 653 L390 649.9 L387 652 L386.4 648.4 L382.8 649.2 L383.6 645.6 L380 645 L382.1 642 L379 640 L382.1 638 L380 635 L383.6 634.4 L382.8 630.8 L386.4 631.6 L387 628 L390 630.1 L392 627 L394 630.1 L397 628 L397.6 631.6 L401.2 630.8 L400.4 634.4 L404 635 L401.9 638 Z" fill="#D9A521" stroke="#0b0809" stroke-width="2.6" stroke-linejoin="round"/>
        <circle cx="392" cy="640" r="6.5" fill="#a8791a" stroke="#0b0809" stroke-width="1.6"/>
        <path d="M388 638.5 L396 638.5 M392 636 L392 643.5 M387 641.5 L389 641.5 M395 641.5 L397 641.5" fill="none" stroke="#fbe7a6" stroke-width="1.3" stroke-linecap="round"/>
        <path d="M382.9 635.5 A10.4 10.4 0 0 1 390.7 629.6" fill="none" stroke="#fff4c8" stroke-width="1.6" stroke-linecap="round" opacity=".8"/>
      </g>
    </g>
  </g>
  <g class="p-head">
    
    <path d="M402 328 C408 312 428 310 434 326 C440 344 432 368 420 382 C414 390 404 390 400 384 Z" fill="#c9a07e" stroke="#0b0809" stroke-width="4.5" stroke-linejoin="round"/>
    <path d="M412 334 C421 330 427 341 424 353 C422 363 416 369 410 369 M414 349 C418 349 420 353 418 357" fill="none" stroke="#0b0809" stroke-width="2.2" stroke-linecap="round" stroke-linejoin="round"/>
    <use href="#higuruma-face" fill="#c9a07e"/>
      <g clip-path="url(#higuruma-face-c)"><path d="M430 340 L414 312 L404 278 L372 238 L356 296 L350 232 L318 226 L288 304 L298 232 L262 240 L238 288 L246 248 L214 300 L206 312 L196 160 L430 160 Z" fill="#4a1a2a" opacity="0.25"/><path d="M396 300 C406 340 404 392 384 426 C362 456 330 476 294 494 L420 494 L420 300 Z" fill="#4a1a2a" opacity="0.25"/><path d="M288 364 L300 392 L291 397 Z" fill="#4a1a2a" opacity="0.25"/><path d="M324 352 C338 366 372 368 392 344 C390 362 374 374 354 374 C338 374 328 366 324 352 Z" fill="#4b3a5a" opacity="0.3"/><path d="M274.6 349.9 C262.7 361.8 233.8 363.5 216.8 343.1 C218.5 358.4 232.1 368.6 249.1 368.6 C262.7 368.6 271.2 361.8 274.6 349.9 Z" fill="#4b3a5a" opacity="0.28"/><path d="M386 384 C380 402 370 418 356 430 C370 422 382 408 390 390 Z" fill="#4a1a2a" opacity="0.2"/></g>
      <use href="#higuruma-face" fill="none" stroke="#0b0809" stroke-width="5" stroke-linejoin="round"/>
    <g class="p-eye">
      <path class="p-sclera" d="M278 337.2 C272.9 329.5 261 325.3 247.4 324.4 C233.8 323.6 223.6 325.3 216.8 331.2 C220.2 342.3 232.1 348.2 247.4 349.1 C262.7 349.9 272.9 345.7 278 337.2 Z" fill="#f7f3ee"/>
      <g clip-path="url(#higuruma-eyeL)">
        <g class="p-iris"><ellipse cx="251" cy="332" rx="10" ry="12" fill="#2b211c"/><path d="M241 329.8 A10 12 0 0 1 261 329.8 C256 326 246 326 241 329.8 Z" fill="#0f0b09" opacity=".6"/><path d="M244 336.2 C247 342.8 255 342.8 258 336.2 C254 339.2 248 339.2 244 336.2 Z" fill="#6e5849" opacity="0.85"/><ellipse cx="251" cy="333" rx="2.3" ry="3.3" fill="#000"/><ellipse cx="251" cy="332" rx="10" ry="12" fill="none" stroke="#0f0b09" stroke-width="2.5"/><ellipse cx="247.4" cy="327.4" rx="1.7" ry="1.8" fill="#fff"/></g>
        <path d="M191 290 H311 V328 C275 318 227 318 191 334 Z" fill="#3a2030" opacity="0.32"/>
      </g>
      <path d="M284.8 338.9 C279.7 323.6 264.4 315.1 247.4 314.2 C232.1 313.4 218.5 318.5 210.9 328.7 L208.3 338 L214.3 334.6 C221.9 327.8 233.8 324.4 247.4 324.4 C261 325.3 271.2 330.4 278 340.6 Z" fill="#0b0809"/>
      <path d="M271.2 344.8 C261 349.1 249.1 349.9 238.9 348.2 C229.6 345.7 222.8 340.6 219.4 334.6" fill="none" stroke="#0b0809" stroke-width="2.2" stroke-linecap="round" stroke-linejoin="round"/>
      <path d="M272.9 309.1 C257.6 304 235.5 304.9 215.1 315.9" fill="none" stroke="#0b0809" stroke-width="2" stroke-linecap="round" stroke-linejoin="round" opacity="0.7"/>
    </g>
    <g class="p-eye">
      <path class="p-sclera" d="M320 337 C326 328 340 323 356 322 C372 321 384 323 392 330 C388 343 374 350 356 351 C338 352 326 347 320 337 Z" fill="#f7f3ee"/>
      <g clip-path="url(#higuruma-eyeR)">
        <g class="p-iris"><ellipse cx="354" cy="330" rx="11" ry="13" fill="#2b211c"/><path d="M343 327.7 A11 13 0 0 1 365 327.7 C359.5 323.5 348.5 323.5 343 327.7 Z" fill="#0f0b09" opacity=".6"/><path d="M346.3 334.6 C349.6 341.7 358.4 341.7 361.7 334.6 C357.3 337.8 350.7 337.8 346.3 334.6 Z" fill="#6e5849" opacity="0.85"/><ellipse cx="354" cy="331" rx="2.5" ry="3.6" fill="#000"/><ellipse cx="354" cy="330" rx="11" ry="13" fill="none" stroke="#0f0b09" stroke-width="2.5"/><ellipse cx="350" cy="325.1" rx="1.8" ry="1.9" fill="#fff"/></g>
        <path d="M294 288 H414 V326 C378 316 330 316 294 332 Z" fill="#3a2030" opacity="0.32"/>
      </g>
      <path d="M312 339 C318 321 336 311 356 310 C374 309 390 315 399 327 L402 338 L395 334 C386 326 372 322 356 322 C340 323 328 329 320 341 Z" fill="#0b0809"/>
      <path d="M328 346 C340 351 354 352 366 350 C377 347 385 341 389 334" fill="none" stroke="#0b0809" stroke-width="2.2" stroke-linecap="round" stroke-linejoin="round"/>
      <path d="M326 304 C344 298 370 299 394 312" fill="none" stroke="#0b0809" stroke-width="2" stroke-linecap="round" stroke-linejoin="round" opacity="0.7"/>
    </g>
    <path d="M334 362 C348 368 366 368 382 360" fill="none" stroke="#0b0809" stroke-width="1.9" stroke-linecap="round" stroke-linejoin="round" opacity="0.55"/>
    <path d="M266.1 358.4 C254.2 363.5 238.9 363.5 225.3 356.7" fill="none" stroke="#0b0809" stroke-width="1.9" stroke-linecap="round" stroke-linejoin="round" opacity="0.5"/>
    <path d="M382 392 C377 404 370 414 362 422" fill="none" stroke="#0b0809" stroke-width="1.8" stroke-linecap="round" stroke-linejoin="round" opacity="0.35"/>
    <path d="M224 298 C238 295 254 294 271 297 L270 303 C254 301 238 302 226 305 Z M326 296 C344 292 366 292 390 296 L389 302 C366 299 344 300 328 304 Z" fill="#2e2019"/>
    <path d="M288 362 C286 373 283 384 281 393 C285 396 290 397 294 396" fill="none" stroke="#0b0809" stroke-width="2.3" stroke-linecap="round" stroke-linejoin="round"/>
    <path d="M268 442 C280 441 294 440 308 440" fill="none" stroke="#0b0809" stroke-width="2.6" stroke-linecap="round" stroke-linejoin="round"/>
    <path d="M280 452 C286 453 292 453 298 452" fill="none" stroke="#0b0809" stroke-width="2" stroke-linecap="round" stroke-linejoin="round" opacity="0.55"/>
    <g class="p-hair-front">
      <use href="#higuruma-hf" fill="#4a3426"/>
      <g clip-path="url(#higuruma-hf-c)"><path d="M366 144 C404 162 432 192 454 220 L468 256 L462 300 L430 330 L412 296 L398 260 L372 232 L366 200 L330 180 Z" fill="#4a1a2a" opacity="0.3"/><path d="M204 300 C200 280 198 256 206 232 L230 240 L214 290 Z" fill="#4a1a2a" opacity="0.3"/><path d="M198 246 C208 206 236 176 276 158 C300 150 326 146 348 148 L338 160 L322 178 L318 164 L298 170 L284 192 L278 174 L258 182 L244 206 L240 188 L222 204 L208 232 Z" fill="#8a6a55"/></g>
      <use href="#higuruma-hf" fill="none" stroke="#0b0809" stroke-width="5" stroke-linejoin="round"/>
      <g clip-path="url(#higuruma-hf-c)"><path d="M372 232 C380 208 394 192 414 182 M350 226 C356 200 370 180 394 166 M314 220 C324 192 342 172 370 158 M296 222 C304 194 318 174 342 160 M262 234 C272 206 290 186 316 172 M246 240 C252 216 264 198 284 184 M410 290 C420 268 430 250 440 236 M226 272 C228 254 234 240 244 230" fill="none" stroke="#0b0809" stroke-width="2.4" stroke-linecap="round" stroke-linejoin="round"/></g>
      <use href="#higuruma-hf" fill="none" stroke="#0b0809" stroke-width="5" stroke-linejoin="round"/>
    </g>
  </g>
</svg>
