<svg xmlns="http://www.w3.org/2000/svg" viewBox="0 0 600 800">
  <defs>
    <clipPath id="makima-frame"><rect width="600" height="800"/></clipPath>
    <path id="makima-hf" d="M224 490 C206 470 196 430 192 390 C188 342 186 300 194 262 C204 206 248 158 304 152 C362 148 410 184 426 238 C434 270 436 304 434 336 C432 392 424 444 400 496 C388 476 384 450 388 420 C392 392 402 364 406 330 C408 308 408 284 406 262Q409.9 275 402 286 Q402.9 271.9 390 266 Q386.2 284.9 372 298 Q371.8 279.5 356 270 Q351.2 290 336 304 Q338.4 284.8 324 272 Q321.8 295.5 310 316 Q313.3 283.9 297 256 Q280.7 283.9 284 316 Q273.2 296.4 272 274 Q254.7 282.8 252 302 Q240.4 289.2 240 272 Q224.7 277.7 224 294 Q213.5 284.3 214 270 C212 300 210 330 214 360 C218 400 230 440 224 490 Z"/>
    <clipPath id="makima-hf-c"><use href="#makima-hf"/></clipPath>
    <path id="makima-hb" d="M196 300 C196 220 246 166 304 160 C372 156 428 208 434 300 C436 360 432 410 420 440 C412 458 404 470 398 478 C384 472 368 460 356 446 L250 446 C214 420 196 360 196 300 Z"/>
    <clipPath id="makima-hb-c"><use href="#makima-hb"/></clipPath>
    <path id="makima-torso" d="M262 440 C264 480 262 514 258 538 C222 558 164 572 124 590 C88 608 70 668 64 820 L542 820 C536 668 518 608 482 592 C442 572 386 558 352 538 C346 508 346 470 350 432 Z"/>
    <clipPath id="makima-torso-c"><use href="#makima-torso"/></clipPath>
    <path id="makima-cbk" d="M240 552 C236 522 246 498 262 486 L346 484 C362 496 372 522 370 552 Z"/>
    <clipPath id="makima-cbk-c"><use href="#makima-cbk"/></clipPath>
    <path id="makima-shirt" d="M244 540 C214 556 166 572 124 590 C88 608 70 668 64 820 L542 820 C536 668 518 608 482 592 C440 572 394 556 364 540 C350 552 330 560 304 562 C278 560 258 552 244 540 Z"/>
    <clipPath id="makima-shirt-c"><use href="#makima-shirt"/></clipPath>
    <path id="makima-cl" d="M254 518 C264 540 282 556 301 566 C292 586 280 604 266 618 C254 598 244 574 240 548 C242 534 248 524 254 518 Z"/>
    <clipPath id="makima-cl-c"><use href="#makima-cl"/></clipPath>
    <path id="makima-cr" d="M354 518 C344 540 326 556 307 566 C316 586 328 604 342 618 C354 598 364 574 368 548 C366 534 360 524 354 518 Z"/>
    <clipPath id="makima-cr-c"><use href="#makima-cr"/></clipPath>
    <path id="makima-knot" d="M293 561 C299 556 309 556 315 561 L311 590 C307 594 301 594 297 590 Z"/>
    <clipPath id="makima-knot-c"><use href="#makima-knot"/></clipPath>
    <path id="makima-tie" d="M297 588 C301 592 307 592 311 588 C315 640 320 730 324 820 L284 820 C288 730 293 640 297 588 Z"/>
    <clipPath id="makima-tie-c"><use href="#makima-tie"/></clipPath>
    <path id="makima-coatL" d="M248 530 C214 546 168 560 126 578 C82 598 58 664 52 820 L216 820 C218 752 224 690 232 636 C238 600 244 564 248 530 Z"/>
    <clipPath id="makima-coatL-c"><use href="#makima-coatL"/></clipPath>
    <path id="makima-coatR" d="M360 530 C394 546 440 560 482 578 C526 598 550 664 556 820 L392 820 C390 752 384 690 376 636 C370 600 364 564 360 530 Z"/>
    <clipPath id="makima-coatR-c"><use href="#makima-coatR"/></clipPath>
    <path id="makima-lapL" d="M250 530 C248 572 244 612 238 652 L230 712 C210 684 188 654 166 626 L190 610 L174 586 C200 568 226 550 250 530 Z"/>
    <clipPath id="makima-lapL-c"><use href="#makima-lapL"/></clipPath>
    <path id="makima-lapR" d="M358 530 C360 572 364 612 370 652 L378 712 C398 684 420 654 442 626 L418 610 L434 586 C408 568 382 550 358 530 Z"/>
    <clipPath id="makima-lapR-c"><use href="#makima-lapR"/></clipPath>
    <path id="makima-face" d="M302 178 C358 178 400 216 404 272 C407 300 406 326 403 346 C398 376 388 400 372 420 C350 448 320 464 296 470 C288 472 280 471 274 467 C252 452 230 432 218 408 C208 386 203 364 202 344 C200 306 200 290 204 274 C214 214 250 178 302 178 Z"/>
    <clipPath id="makima-face-c"><use href="#makima-face"/></clipPath>
    <clipPath id="makima-eyeL"><path d="M282 338.6 C278.6 325.8 265.9 318.2 250.6 317.3 C236.1 316.5 225.1 321.6 219.1 330.1 C220.8 342 231 350.5 248 352.2 C265 353 276.9 347.9 282 338.6 Z"/></clipPath>
    <clipPath id="makima-eyeR"><path d="M318 339 C322 324 337 315 355 314 C372 313 385 319 392 329 C390 343 378 353 358 355 C338 356 324 350 318 339 Z"/></clipPath>
  </defs>
  <g clip-path="url(#makima-frame)">
    <g class="p-hair-back" transform="rotate(3 300 330)">
      <use href="#makima-hb" fill="#c9614e"/>
      <g clip-path="url(#makima-hb-c)"><path d="M0 0H600V820H0Z" fill="#4a1a2a" opacity="0.3"/></g>
      <use href="#makima-hb" fill="none" stroke="#0b0809" stroke-width="5" stroke-linejoin="round"/>
    </g>
  </g>
  <g clip-path="url(#makima-frame)">
    <g class="p-body">
      
      <use href="#makima-cbk" fill="#2c2c33"/>
      <g clip-path="url(#makima-cbk-c)"><path d="M300 480 L380 480 L380 560 L300 560 Z" fill="#000" opacity="0.35"/></g>
      <use href="#makima-cbk" fill="none" stroke="#0b0809" stroke-width="5" stroke-linejoin="round"/>
      <use href="#makima-torso" fill="#f6e3d6"/>
      <g clip-path="url(#makima-torso-c)"><path d="M250 430 L366 416 L366 470 C340 488 300 496 250 490 Z" fill="#4a1a2a" opacity="0.28"/><path d="M356 470 C346 498 336 530 324 562 C344 558 364 550 384 542 L384 470 Z" fill="#4a1a2a" opacity="0.22"/></g>
      <use href="#makima-torso" fill="none" stroke="#0b0809" stroke-width="5" stroke-linejoin="round"/>
      <use href="#makima-shirt" fill="#f5f3ee"/>
      <g clip-path="url(#makima-shirt-c)"><path d="M364 540 C350 560 330 572 306 576 L306 600 C338 596 364 580 384 556 Z" fill="#4a1a2a" opacity="0.16"/><path d="M330 600 C340 680 344 760 342 820 L420 820 L420 590 Z" fill="#4a1a2a" opacity="0.16"/></g>
      <use href="#makima-shirt" fill="none" stroke="#0b0809" stroke-width="5" stroke-linejoin="round"/>
      <use href="#makima-tie" fill="#1d1a1c"/>
      <g clip-path="url(#makima-tie-c)"><path d="M300 600 C298 660 294 740 290 820 L298 820 C300 740 302 660 303 600 Z" fill="#3d383b"/></g>
      <use href="#makima-tie" fill="none" stroke="#0b0809" stroke-width="5" stroke-linejoin="round"/>
      <use href="#makima-knot" fill="#1d1a1c"/>
      <g clip-path="url(#makima-knot-c)"><path d="M297 563 C300 561 304 561 306 562 L303 586 L300 586 Z" fill="#3d383b"/></g>
      <use href="#makima-knot" fill="none" stroke="#0b0809" stroke-width="4" stroke-linejoin="round"/>
      <use href="#makima-cl" fill="#f5f3ee"/>
      <g clip-path="url(#makima-cl-c)"><path d="M301 566 C292 586 280 604 266 618 L262 606 C276 592 288 578 296 562 Z" fill="#4a1a2a" opacity="0.12"/></g>
      <use href="#makima-cl" fill="none" stroke="#0b0809" stroke-width="4.5" stroke-linejoin="round"/>
      <use href="#makima-cr" fill="#f5f3ee"/>
      <g clip-path="url(#makima-cr-c)"><path d="M307 566 C316 586 328 604 342 618 L356 610 C350 580 360 548 356 520 Z" fill="#4a1a2a" opacity="0.18"/></g>
      <use href="#makima-cr" fill="none" stroke="#0b0809" stroke-width="4.5" stroke-linejoin="round"/>
      <use href="#makima-coatL" fill="#2c2c33"/>
      <g clip-path="url(#makima-coatL-c)"><path d="M120 590 C90 610 72 660 66 740 L80 740 C88 676 104 628 140 600 Z" fill="#403f4a"/><path d="M232 640 L226 716 C204 690 184 662 164 632 L156 646 C178 680 200 712 222 740 Z" fill="#000" opacity="0.4"/></g>
      <use href="#makima-coatL" fill="none" stroke="#0b0809" stroke-width="5" stroke-linejoin="round"/>
      <use href="#makima-coatR" fill="#2c2c33"/>
      <g clip-path="url(#makima-coatR-c)"><path d="M416 556 C472 578 520 640 540 820 L600 820 L600 540 Z" fill="#000" opacity="0.4"/><path d="M376 640 L382 716 C404 690 424 662 444 632 L452 646 C430 680 408 712 386 740 Z" fill="#000" opacity="0.4"/></g>
      <use href="#makima-coatR" fill="none" stroke="#0b0809" stroke-width="5" stroke-linejoin="round"/>
      <path d="M150 650 C140 700 136 760 138 820 M190 700 C186 740 186 780 188 820" fill="none" stroke="#55505e" stroke-width="2.5" stroke-linecap="round" stroke-linejoin="round"/>
      <path d="M458 650 C468 700 472 760 470 820" fill="none" stroke="#55505e" stroke-width="2.5" stroke-linecap="round" stroke-linejoin="round"/>
      <use href="#makima-lapL" fill="#2c2c33"/>
      <g clip-path="url(#makima-lapL-c)"><path d="M246 548 C228 562 206 576 184 588 L188 598 C210 584 232 570 248 556 Z" fill="#403f4a"/></g>
      <use href="#makima-lapL" fill="none" stroke="#0b0809" stroke-width="5" stroke-linejoin="round"/>
      <use href="#makima-lapR" fill="#2c2c33"/>
      <g clip-path="url(#makima-lapR-c)"><path d="M358 530 C360 572 364 612 370 652 L378 712 L460 600 L380 540 Z" fill="#000" opacity="0.35"/></g>
      <use href="#makima-lapR" fill="none" stroke="#0b0809" stroke-width="5" stroke-linejoin="round"/>
      <g><path d="M388,448 C440,474 480,556 474,850" fill="none" stroke="#0b0809" stroke-width="52"/><path d="M427.4 468.5 C427.8 456.4 413.6 446.2 395.7 445.6 C377.7 445 362.9 454.4 362.5 466.5 C362.1 478.6 376.3 488.8 394.3 489.4 C412.2 490 427 480.6 427.4 468.5 Z" fill="#0b0809" stroke="#0b0809" stroke-width="10" stroke-linejoin="round"/><path d="M432.9 503.4 C444.9 503.4 454.7 488.9 454.8 471 C454.8 453 445.2 438.4 433.2 438.4 C421.2 438.4 411.4 452.9 411.3 470.8 C411.3 488.7 420.9 503.3 432.9 503.4 Z" fill="#0b0809" stroke="#0b0809" stroke-width="10" stroke-linejoin="round"/><path d="M454.1 524.7 C459.9 514.3 451.9 498.8 436.2 490 C420.6 481.3 403.2 482.6 397.4 493 C391.6 503.4 399.6 518.9 415.2 527.6 C430.9 536.4 448.3 535 454.1 524.7 Z" fill="#0b0809" stroke="#0b0809" stroke-width="10" stroke-linejoin="round"/><path d="M449.3 557.6 C460.5 561.2 474.1 550.4 479.7 533.3 C485.3 516.3 480.8 499.5 469.6 495.8 C458.4 492.2 444.8 503 439.2 520 C433.6 537.1 438.1 553.9 449.3 557.6 Z" fill="#0b0809" stroke="#0b0809" stroke-width="10" stroke-linejoin="round"/><path d="M467.7 582.4 C475.3 573.5 470.5 556.9 456.9 545.1 C443.3 533.4 426.2 531.1 418.5 539.9 C410.9 548.7 415.7 565.4 429.3 577.1 C442.9 588.9 460.1 591.2 467.7 582.4 Z" fill="#0b0809" stroke="#0b0809" stroke-width="10" stroke-linejoin="round"/><path d="M458.7 613.8 C469.1 618.9 483.9 610 491.8 593.9 C499.7 577.8 497.7 560.6 487.3 555.5 C476.9 550.4 462.1 559.3 454.2 575.4 C446.3 591.5 448.3 608.7 458.7 613.8 Z" fill="#0b0809" stroke="#0b0809" stroke-width="10" stroke-linejoin="round"/><path d="M475.5 640.8 C483.8 632.9 480.6 616 468.3 602.9 C455.9 589.9 439.2 585.7 430.9 593.6 C422.6 601.5 425.8 618.4 438.1 631.4 C450.5 644.5 467.2 648.7 475.5 640.8 Z" fill="#0b0809" stroke="#0b0809" stroke-width="10" stroke-linejoin="round"/><path d="M464 671.4 C473.8 677.2 489.1 669.3 498.2 653.9 C507.3 638.4 506.8 621.2 497 615.5 C487.2 609.7 471.9 617.6 462.8 633 C453.7 648.5 454.2 665.7 464 671.4 Z" fill="#0b0809" stroke="#0b0809" stroke-width="10" stroke-linejoin="round"/><path d="M479.9 699.3 C488.5 692 486.1 675.1 474.6 661.3 C463.1 647.6 446.7 642.3 438.1 649.5 C429.5 656.7 431.9 673.7 443.4 687.5 C454.9 701.2 471.3 706.5 479.9 699.3 Z" fill="#0b0809" stroke="#0b0809" stroke-width="10" stroke-linejoin="round"/><path d="M466.6 729.3 C475.9 735.4 491.4 728.1 501.2 713.1 C511.1 698.1 511.5 681 502.2 674.9 C492.9 668.8 477.4 676.1 467.5 691.1 C457.7 706.1 457.3 723.2 466.6 729.3 Z" fill="#0b0809" stroke="#0b0809" stroke-width="10" stroke-linejoin="round"/><path d="M481.9 757.5 C490.6 750.8 488.8 733.8 477.8 719.6 C466.8 705.4 450.9 699.4 442.1 706.2 C433.4 712.9 435.3 729.9 446.2 744 C457.2 758.2 473.2 764.3 481.9 757.5 Z" fill="#0b0809" stroke="#0b0809" stroke-width="10" stroke-linejoin="round"/><path d="M467.2 786.9 C476.2 793.1 491.8 786.3 502.1 771.7 C512.4 757 513.5 740 504.6 733.7 C495.7 727.5 480.1 734.3 469.8 748.9 C459.5 763.6 458.3 780.6 467.2 786.9 Z" fill="#0b0809" stroke="#0b0809" stroke-width="10" stroke-linejoin="round"/><path d="M482.3 815.6 C491 809.2 489.5 792.3 478.9 777.8 C468.4 763.3 452.7 756.8 444 763.1 C435.3 769.5 436.8 786.4 447.3 800.9 C457.9 815.4 473.6 822 482.3 815.6 Z" fill="#0b0809" stroke="#0b0809" stroke-width="10" stroke-linejoin="round"/><path d="M466.5 845.1 C475.1 851.4 490.7 844.9 501.4 830.5 C512.1 816.1 513.7 799.2 505.2 792.9 C496.6 786.5 481 793 470.3 807.4 C459.6 821.8 457.9 838.7 466.5 845.1 Z" fill="#0b0809" stroke="#0b0809" stroke-width="10" stroke-linejoin="round"/><path d="M481.4 874.2 C490.1 868.2 488.8 851.3 478.5 836.6 C468.3 821.9 452.9 814.9 444.2 820.9 C435.6 827 436.8 843.8 447.1 858.5 C457.4 873.3 472.7 880.3 481.4 874.2 Z" fill="#0b0809" stroke="#0b0809" stroke-width="10" stroke-linejoin="round"/><path d="M388,448 C440,474 480,556 474,850" fill="none" stroke="#a34c43" stroke-width="42"/><path d="M427.4 468.5 C427.8 456.4 413.6 446.2 395.7 445.6 C377.7 445 362.9 454.4 362.5 466.5 C362.1 478.6 376.3 488.8 394.3 489.4 C412.2 490 427 480.6 427.4 468.5 Z" fill="#a34c43"/><path d="M419.9 464.4 C420.2 454 408 445.1 392.6 444.7 C377.1 444.2 364.4 452.2 364 462.6 C363.7 473 375.9 481.9 391.4 482.3 C406.8 482.8 419.5 474.8 419.9 464.4 Z" fill="#c9614e"/><path d="M392.8 484.5 C378.2 484.5 367 476.5 365.7 467.7 C372 475.5 380.9 480.6 392.8 484.5 Z" fill="#e9c0b8" opacity=".9"/><path d="M374.6 473.4 C388.2 476.5 401.2 476.9 414.9 474.7 M378.9 460.8 C390.4 459 400.1 459.3 411.4 461.9" fill="none" stroke="#0b0809" stroke-width="1.8" stroke-linecap="round" opacity=".55"/><path d="M427.4 468.5 C427.8 456.4 413.6 446.2 395.7 445.6 C377.7 445 362.9 454.4 362.5 466.5 C362.1 478.6 376.3 488.8 394.3 489.4 C412.2 490 427 480.6 427.4 468.5 Z" fill="none" stroke="#0b0809" stroke-width="2.5" stroke-linejoin="round"/><path d="M432.9 503.4 C444.9 503.4 454.7 488.9 454.8 471 C454.8 453 445.2 438.4 433.2 438.4 C421.2 438.4 411.4 452.9 411.3 470.8 C411.3 488.7 420.9 503.3 432.9 503.4 Z" fill="#a34c43"/><path d="M430 494.8 C440.3 494.8 448.7 482.4 448.7 466.9 C448.8 451.5 440.5 439 430.2 438.9 C419.8 438.9 411.4 451.4 411.4 466.8 C411.3 482.2 419.6 494.8 430 494.8 Z" fill="#c9614e"/><path d="M416.1 469.2 C415.7 454.6 423.4 443.2 432.1 441.6 C424.5 448.1 419.6 457.2 416.1 469.2 Z" fill="#e9c0b8" opacity=".9"/><path d="M426.6 450.7 C424 464.3 423.9 477.3 426.5 491 M439.2 454.7 C441.3 466 441.3 475.8 439.1 487.1" fill="none" stroke="#0b0809" stroke-width="1.8" stroke-linecap="round" opacity=".55"/><path d="M432.9 503.4 C444.9 503.4 454.7 488.9 454.8 471 C454.8 453 445.2 438.4 433.2 438.4 C421.2 438.4 411.4 452.9 411.3 470.8 C411.3 488.7 420.9 503.3 432.9 503.4 Z" fill="none" stroke="#0b0809" stroke-width="2.5" stroke-linejoin="round"/><path d="M454.1 524.7 C459.9 514.3 451.9 498.8 436.2 490 C420.6 481.3 403.2 482.6 397.4 493 C391.6 503.4 399.6 518.9 415.2 527.6 C430.9 536.4 448.3 535 454.1 524.7 Z" fill="#a34c43"/><path d="M447.1 518.4 C452.1 509.5 445.2 496.2 431.8 488.7 C418.3 481.1 403.3 482.3 398.3 491.2 C393.3 500.1 400.2 513.5 413.7 521 C427.2 528.5 442.1 527.4 447.1 518.4 Z" fill="#c9614e"/><path d="M416.1 522.7 C403.1 515.9 396.9 503.8 399.7 495.5 C401.7 505.2 407.3 513.8 416.1 522.7 Z" fill="#e9c0b8" opacity=".9"/><path d="M405 504.6 C415.6 513.5 427 519.9 440.1 524.3 M414.5 495.6 C425.5 499.3 434 504.1 442.8 511.5" fill="none" stroke="#0b0809" stroke-width="1.8" stroke-linecap="round" opacity=".55"/><path d="M454.1 524.7 C459.9 514.3 451.9 498.8 436.2 490 C420.6 481.3 403.2 482.6 397.4 493 C391.6 503.4 399.6 518.9 415.2 527.6 C430.9 536.4 448.3 535 454.1 524.7 Z" fill="none" stroke="#0b0809" stroke-width="2.5" stroke-linejoin="round"/><path d="M449.3 557.6 C460.5 561.2 474.1 550.4 479.7 533.3 C485.3 516.3 480.8 499.5 469.6 495.8 C458.4 492.2 444.8 503 439.2 520 C433.6 537.1 438.1 553.9 449.3 557.6 Z" fill="#a34c43"/><path d="M447.7 549.2 C457.4 552.4 469.1 543.1 473.9 528.4 C478.7 513.8 474.8 499.3 465.2 496.2 C455.5 493 443.8 502.3 439 517 C434.2 531.6 438.1 546.1 447.7 549.2 Z" fill="#c9614e"/><path d="M444.2 520 C448.3 505.9 458.9 497.5 467.6 498.6 C458.4 502.4 451.1 509.6 444.2 520 Z" fill="#e9c0b8" opacity=".9"/><path d="M459.7 505.6 C453 517.7 448.9 530.1 447.1 543.8 M470.2 513.1 C468.7 524.6 465.6 533.9 460.1 544" fill="none" stroke="#0b0809" stroke-width="1.8" stroke-linecap="round" opacity=".55"/><path d="M449.3 557.6 C460.5 561.2 474.1 550.4 479.7 533.3 C485.3 516.3 480.8 499.5 469.6 495.8 C458.4 492.2 444.8 503 439.2 520 C433.6 537.1 438.1 553.9 449.3 557.6 Z" fill="none" stroke="#0b0809" stroke-width="2.5" stroke-linejoin="round"/><path d="M467.7 582.4 C475.3 573.5 470.5 556.9 456.9 545.1 C443.3 533.4 426.2 531.1 418.5 539.9 C410.9 548.7 415.7 565.4 429.3 577.1 C442.9 588.9 460.1 591.2 467.7 582.4 Z" fill="#a34c43"/><path d="M461.3 575.4 C467.8 567.8 463.7 553.5 452 543.4 C440.3 533.3 425.5 531.3 419 538.9 C412.4 546.5 416.6 560.8 428.2 570.9 C439.9 581 454.7 583 461.3 575.4 Z" fill="#c9614e"/><path d="M431.1 572.5 C419.8 563.3 416 550.3 420.3 542.8 C420.4 552.7 424.2 562.1 431.1 572.5 Z" fill="#e9c0b8" opacity=".9"/><path d="M423.7 552.8 C432.4 563.6 442.2 572.1 454.2 579.1 M434.7 546 C444.7 551.9 452 558.2 459.3 567.3" fill="none" stroke="#0b0809" stroke-width="1.8" stroke-linecap="round" opacity=".55"/><path d="M467.7 582.4 C475.3 573.5 470.5 556.9 456.9 545.1 C443.3 533.4 426.2 531.1 418.5 539.9 C410.9 548.7 415.7 565.4 429.3 577.1 C442.9 588.9 460.1 591.2 467.7 582.4 Z" fill="none" stroke="#0b0809" stroke-width="2.5" stroke-linejoin="round"/><path d="M458.7 613.8 C469.1 618.9 483.9 610 491.8 593.9 C499.7 577.8 497.7 560.6 487.3 555.5 C476.9 550.4 462.1 559.3 454.2 575.4 C446.3 591.5 448.3 608.7 458.7 613.8 Z" fill="#a34c43"/><path d="M457.7 605.7 C466.6 610.1 479.4 602.4 486.2 588.6 C493 574.7 491.2 559.9 482.3 555.6 C473.4 551.2 460.6 558.9 453.8 572.7 C447 586.6 448.8 601.3 457.7 605.7 Z" fill="#c9614e"/><path d="M459.1 576 C465.1 562.7 476.7 555.7 484.9 557.9 C475.5 560.5 467.4 566.7 459.1 576 Z" fill="#e9c0b8" opacity=".9"/><path d="M476.2 563.8 C468 574.9 462.2 586.6 458.5 600 M485.4 572.6 C482.3 583.8 478 592.5 471.1 601.8" fill="none" stroke="#0b0809" stroke-width="1.8" stroke-linecap="round" opacity=".55"/><path d="M458.7 613.8 C469.1 618.9 483.9 610 491.8 593.9 C499.7 577.8 497.7 560.6 487.3 555.5 C476.9 550.4 462.1 559.3 454.2 575.4 C446.3 591.5 448.3 608.7 458.7 613.8 Z" fill="none" stroke="#0b0809" stroke-width="2.5" stroke-linejoin="round"/><path d="M475.5 640.8 C483.8 632.9 480.6 616 468.3 602.9 C455.9 589.9 439.2 585.7 430.9 593.6 C422.6 601.5 425.8 618.4 438.1 631.4 C450.5 644.5 467.2 648.7 475.5 640.8 Z" fill="#a34c43"/><path d="M469.4 633.5 C476.6 626.7 473.8 612.1 463.2 600.9 C452.6 589.7 438.2 586.1 431 592.9 C423.9 599.7 426.6 614.2 437.3 625.5 C447.9 636.7 462.2 640.3 469.4 633.5 Z" fill="#c9614e"/><path d="M440.3 627.1 C430 616.8 427.5 603.6 432.4 596.7 C431.6 606.4 434.5 616.1 440.3 627.1 Z" fill="#e9c0b8" opacity=".9"/><path d="M434.8 606.8 C442.4 618.5 451.3 627.9 462.5 636.1 M446.3 601.4 C455.6 608.2 462.3 615.3 468.6 625" fill="none" stroke="#0b0809" stroke-width="1.8" stroke-linecap="round" opacity=".55"/><path d="M475.5 640.8 C483.8 632.9 480.6 616 468.3 602.9 C455.9 589.9 439.2 585.7 430.9 593.6 C422.6 601.5 425.8 618.4 438.1 631.4 C450.5 644.5 467.2 648.7 475.5 640.8 Z" fill="none" stroke="#0b0809" stroke-width="2.5" stroke-linejoin="round"/><path d="M464 671.4 C473.8 677.2 489.1 669.3 498.2 653.9 C507.3 638.4 506.8 621.2 497 615.5 C487.2 609.7 471.9 617.6 462.8 633 C453.7 648.5 454.2 665.7 464 671.4 Z" fill="#a34c43"/><path d="M463.3 663.5 C471.7 668.5 484.9 661.7 492.7 648.4 C500.5 635.1 500.1 620.3 491.7 615.4 C483.3 610.4 470.1 617.2 462.3 630.5 C454.4 643.8 454.9 658.6 463.3 663.5 Z" fill="#c9614e"/><path d="M467.5 633.9 C474.6 621.1 486.5 615 494.4 617.7 C485 619.7 476.4 625.2 467.5 633.9 Z" fill="#e9c0b8" opacity=".9"/><path d="M485.4 623 C476.4 633.5 469.8 644.7 465 657.7 M493.7 632.4 C489.7 643.2 484.7 651.6 477.2 660.4" fill="none" stroke="#0b0809" stroke-width="1.8" stroke-linecap="round" opacity=".55"/><path d="M464 671.4 C473.8 677.2 489.1 669.3 498.2 653.9 C507.3 638.4 506.8 621.2 497 615.5 C487.2 609.7 471.9 617.6 462.8 633 C453.7 648.5 454.2 665.7 464 671.4 Z" fill="none" stroke="#0b0809" stroke-width="2.5" stroke-linejoin="round"/><path d="M479.9 699.3 C488.5 692 486.1 675.1 474.6 661.3 C463.1 647.6 446.7 642.3 438.1 649.5 C429.5 656.7 431.9 673.7 443.4 687.5 C454.9 701.2 471.3 706.5 479.9 699.3 Z" fill="#a34c43"/><path d="M474 691.8 C481.4 685.6 479.3 671 469.4 659.1 C459.5 647.3 445.4 642.8 438 649 C430.6 655.2 432.7 669.8 442.6 681.6 C452.5 693.4 466.5 698 474 691.8 Z" fill="#c9614e"/><path d="M445.8 683.3 C436.1 672.4 434.2 659.1 439.4 652.6 C438.1 662.2 440.6 672 445.8 683.3 Z" fill="#e9c0b8" opacity=".9"/><path d="M441.4 662.9 C448.3 674.9 456.6 684.9 467.3 693.7 M452.9 658.3 C461.8 665.7 468.1 673.1 473.8 683.2" fill="none" stroke="#0b0809" stroke-width="1.8" stroke-linecap="round" opacity=".55"/><path d="M479.9 699.3 C488.5 692 486.1 675.1 474.6 661.3 C463.1 647.6 446.7 642.3 438.1 649.5 C429.5 656.7 431.9 673.7 443.4 687.5 C454.9 701.2 471.3 706.5 479.9 699.3 Z" fill="none" stroke="#0b0809" stroke-width="2.5" stroke-linejoin="round"/><path d="M466.6 729.3 C475.9 735.4 491.4 728.1 501.2 713.1 C511.1 698.1 511.5 681 502.2 674.9 C492.9 668.8 477.4 676.1 467.5 691.1 C457.7 706.1 457.3 723.2 466.6 729.3 Z" fill="#a34c43"/><path d="M466.1 721.5 C474.1 726.7 487.4 720.5 495.9 707.6 C504.3 694.7 504.7 680 496.7 674.7 C488.7 669.5 475.4 675.7 466.9 688.6 C458.4 701.5 458.1 716.2 466.1 721.5 Z" fill="#c9614e"/><path d="M472.1 692.1 C479.8 679.7 491.9 674 499.6 677.1 C490.1 678.7 481.4 683.8 472.1 692.1 Z" fill="#e9c0b8" opacity=".9"/><path d="M490.4 681.9 C480.9 692 473.8 702.9 468.3 715.6 M498 691.6 C493.5 702.2 488.1 710.4 480.2 718.8" fill="none" stroke="#0b0809" stroke-width="1.8" stroke-linecap="round" opacity=".55"/><path d="M466.6 729.3 C475.9 735.4 491.4 728.1 501.2 713.1 C511.1 698.1 511.5 681 502.2 674.9 C492.9 668.8 477.4 676.1 467.5 691.1 C457.7 706.1 457.3 723.2 466.6 729.3 Z" fill="none" stroke="#0b0809" stroke-width="2.5" stroke-linejoin="round"/><path d="M481.9 757.5 C490.6 750.8 488.8 733.8 477.8 719.6 C466.8 705.4 450.9 699.4 442.1 706.2 C433.4 712.9 435.3 729.9 446.2 744 C457.2 758.2 473.2 764.3 481.9 757.5 Z" fill="#a34c43"/><path d="M476.1 749.9 C483.6 744.1 482 729.5 472.6 717.3 C463.1 705.1 449.4 699.9 441.9 705.7 C434.4 711.5 436 726.1 445.5 738.3 C454.9 750.5 468.6 755.7 476.1 749.9 Z" fill="#c9614e"/><path d="M448.7 740.1 C439.5 728.8 438 715.5 443.3 709.3 C441.8 718.7 443.9 728.6 448.7 740.1 Z" fill="#e9c0b8" opacity=".9"/><path d="M445 719.6 C451.4 731.8 459.4 742.1 469.6 751.4 M456.5 715.6 C465 723.3 471 731.1 476.4 741.3" fill="none" stroke="#0b0809" stroke-width="1.8" stroke-linecap="round" opacity=".55"/><path d="M481.9 757.5 C490.6 750.8 488.8 733.8 477.8 719.6 C466.8 705.4 450.9 699.4 442.1 706.2 C433.4 712.9 435.3 729.9 446.2 744 C457.2 758.2 473.2 764.3 481.9 757.5 Z" fill="none" stroke="#0b0809" stroke-width="2.5" stroke-linejoin="round"/><path d="M467.2 786.9 C476.2 793.1 491.8 786.3 502.1 771.7 C512.4 757 513.5 740 504.6 733.7 C495.7 727.5 480.1 734.3 469.8 748.9 C459.5 763.6 458.3 780.6 467.2 786.9 Z" fill="#a34c43"/><path d="M466.9 779.1 C474.5 784.5 487.9 778.7 496.8 766.1 C505.7 753.5 506.7 738.8 499 733.4 C491.3 728.1 477.9 733.9 469 746.5 C460.2 759.1 459.2 773.7 466.9 779.1 Z" fill="#c9614e"/><path d="M474.3 750.1 C482.4 737.9 494.6 732.6 501.9 735.8 C492.6 737.2 483.8 742.1 474.3 750.1 Z" fill="#e9c0b8" opacity=".9"/><path d="M492.7 740.4 C482.9 750.2 475.4 760.8 469.5 773.4 M499.8 750.2 C494.9 760.6 489.3 768.6 481.1 776.8" fill="none" stroke="#0b0809" stroke-width="1.8" stroke-linecap="round" opacity=".55"/><path d="M467.2 786.9 C476.2 793.1 491.8 786.3 502.1 771.7 C512.4 757 513.5 740 504.6 733.7 C495.7 727.5 480.1 734.3 469.8 748.9 C459.5 763.6 458.3 780.6 467.2 786.9 Z" fill="none" stroke="#0b0809" stroke-width="2.5" stroke-linejoin="round"/><path d="M482.3 815.6 C491 809.2 489.5 792.3 478.9 777.8 C468.4 763.3 452.7 756.8 444 763.1 C435.3 769.5 436.8 786.4 447.3 800.9 C457.9 815.4 473.6 822 482.3 815.6 Z" fill="#a34c43"/><path d="M476.6 807.9 C484.1 802.5 482.8 787.9 473.7 775.4 C464.6 763 451.2 757.3 443.7 762.8 C436.2 768.3 437.5 782.8 446.5 795.3 C455.6 807.7 469.1 813.4 476.6 807.9 Z" fill="#c9614e"/><path d="M449.9 797 C440.9 785.5 439.7 772.2 445.1 766.3 C443.4 775.6 445.3 785.5 449.9 797 Z" fill="#e9c0b8" opacity=".9"/><path d="M446.5 776.6 C452.7 789 460.3 799.5 470.3 809.1 M458 773 C466.3 781 472 788.9 477.1 799.3" fill="none" stroke="#0b0809" stroke-width="1.8" stroke-linecap="round" opacity=".55"/><path d="M482.3 815.6 C491 809.2 489.5 792.3 478.9 777.8 C468.4 763.3 452.7 756.8 444 763.1 C435.3 769.5 436.8 786.4 447.3 800.9 C457.9 815.4 473.6 822 482.3 815.6 Z" fill="none" stroke="#0b0809" stroke-width="2.5" stroke-linejoin="round"/><path d="M466.5 845.1 C475.1 851.4 490.7 844.9 501.4 830.5 C512.1 816.1 513.7 799.2 505.2 792.9 C496.6 786.5 481 793 470.3 807.4 C459.6 821.8 457.9 838.7 466.5 845.1 Z" fill="#a34c43"/><path d="M466.2 837.4 C473.6 842.9 487 837.3 496.2 824.9 C505.4 812.5 506.8 798 499.5 792.5 C492.1 787 478.6 792.7 469.4 805.1 C460.3 817.4 458.8 831.9 466.2 837.4 Z" fill="#c9614e"/><path d="M474.7 808.7 C483 796.7 495.3 791.6 502.4 794.9 C493.1 796.1 484.3 800.9 474.7 808.7 Z" fill="#e9c0b8" opacity=".9"/><path d="M493.1 799.3 C483.2 808.9 475.4 819.3 469.2 831.7 M499.8 809.1 C494.6 819.4 488.8 827.3 480.5 835.2" fill="none" stroke="#0b0809" stroke-width="1.8" stroke-linecap="round" opacity=".55"/><path d="M466.5 845.1 C475.1 851.4 490.7 844.9 501.4 830.5 C512.1 816.1 513.7 799.2 505.2 792.9 C496.6 786.5 481 793 470.3 807.4 C459.6 821.8 457.9 838.7 466.5 845.1 Z" fill="none" stroke="#0b0809" stroke-width="2.5" stroke-linejoin="round"/><path d="M481.4 874.2 C490.1 868.2 488.8 851.3 478.5 836.6 C468.3 821.9 452.9 814.9 444.2 820.9 C435.6 827 436.8 843.8 447.1 858.5 C457.4 873.3 472.7 880.3 481.4 874.2 Z" fill="#a34c43"/><path d="M475.8 866.5 C483.3 861.3 482.2 846.8 473.3 834.2 C464.5 821.5 451.3 815.5 443.8 820.7 C436.4 825.9 437.5 840.3 446.3 853 C455.1 865.7 468.3 871.7 475.8 866.5 Z" fill="#c9614e"/><path d="M449.6 854.8 C441 843 440 829.9 445.3 824.1 C443.5 833.3 445.3 843.2 449.6 854.8 Z" fill="#e9c0b8" opacity=".9"/><path d="M446.6 834.3 C452.5 846.9 459.9 857.5 469.6 867.4 M457.9 831.2 C466 839.4 471.6 847.4 476.5 857.8" fill="none" stroke="#0b0809" stroke-width="1.8" stroke-linecap="round" opacity=".55"/><path d="M481.4 874.2 C490.1 868.2 488.8 851.3 478.5 836.6 C468.3 821.9 452.9 814.9 444.2 820.9 C435.6 827 436.8 843.8 447.1 858.5 C457.4 873.3 472.7 880.3 481.4 874.2 Z" fill="none" stroke="#0b0809" stroke-width="2.5" stroke-linejoin="round"/></g>
    </g>
  </g>
  <g class="p-head" transform="rotate(3 300 330)">
    
    <use href="#makima-face" fill="#f6e3d6"/>
      <g clip-path="url(#makima-face-c)"><path d="M420 330 L412 276 L408 300 L396 280 L378 312 L362 284 L342 318 L330 286 L316 330 L303 270 L290 330 L278 288 L258 316 L246 286 L230 308 L220 284 L206 330 L196 160 L420 160 Z" fill="#4a1a2a" opacity="0.25"/><path d="M392 300 C402 344 396 388 374 420 C352 448 324 464 292 474 L420 474 L420 300 Z" fill="#4a1a2a" opacity="0.25"/><path d="M287 368 L297 389 L289 393 Z" fill="#4a1a2a" opacity="0.25"/><path d="M206 270 C214 310 214 350 222 390 C230 430 238 460 236 492 L180 492 L180 270 Z" fill="#4a1a2a" opacity="0.22"/><path d="M410 262 C410 300 408 330 402 364 C396 396 390 430 396 492 L440 492 L440 262 Z" fill="#4a1a2a" opacity="0.25"/></g>
      <use href="#makima-face" fill="none" stroke="#0b0809" stroke-width="5" stroke-linejoin="round"/>
    <g class="p-eye">
      <path class="p-sclera" d="M282 338.6 C278.6 325.8 265.9 318.2 250.6 317.3 C236.1 316.5 225.1 321.6 219.1 330.1 C220.8 342 231 350.5 248 352.2 C265 353 276.9 347.9 282 338.6 Z" fill="#fbf7f4"/>
      <g clip-path="url(#makima-eyeL)">
        <g class="p-iris"><ellipse cx="251" cy="333" rx="15" ry="19" fill="#e2b13c"/><path d="M236 329.6 A15 19 0 0 1 266 329.6 C258.5 323.5 243.5 323.5 236 329.6 Z" fill="#7d4d0c" opacity=".6"/><path d="M240.5 339.7 C245 350.1 257 350.1 261.5 339.7 C255.5 344.4 246.5 344.4 240.5 339.7 Z" fill="#f6e2a4" opacity="0.85"/><ellipse cx="251" cy="334" rx="10.5" ry="13.3" class="p-accent" fill="#D4A017"/><ellipse cx="251" cy="334" rx="10.5" ry="13.3" fill="none" stroke="#a66a12" stroke-width="2"/><ellipse cx="251" cy="334" rx="6.9" ry="8.7" fill="#f0cf6a"/><ellipse cx="251" cy="334" rx="6.9" ry="8.7" fill="none" stroke="#a66a12" stroke-width="2"/><ellipse cx="251" cy="334" rx="3.6" ry="4.6" fill="#2a1606"/><ellipse cx="251" cy="333" rx="15" ry="19" fill="none" stroke="#7d4d0c" stroke-width="2.5"/><ellipse cx="245.6" cy="325.8" rx="2.3" ry="2.6" fill="#fff"/></g>
        <path d="M191 288 H311 V326 C275 316 227 316 191 332 Z" fill="#3a2030" opacity="0.2"/>
      </g>
      <path d="M288 341.1 C286.3 321.6 270.1 308 249.7 307.1 C235.3 306.3 223.4 311.4 215.7 319 L208.9 313.1 L211.5 324.1 C212.3 328.4 213.2 331.8 214 335.2 C220.8 324.1 233.6 317.3 249.7 317.3 C265 318.2 276.1 326.7 282 342.8 Z" fill="#0b0809"/>
      <path d="M275.2 348.8 C265 353.9 253.1 355.6 241.2 353.9 C231 352.2 224.2 345.4 220.8 339.4" fill="none" stroke="#0b0809" stroke-width="2.2" stroke-linecap="round" stroke-linejoin="round"/>
      <path d="M271.8 304.6 C259.9 298.6 241.2 297.8 225.9 302.9" fill="none" stroke="#0b0809" stroke-width="2" stroke-linecap="round" stroke-linejoin="round" opacity="0.7"/>
    </g>
    <g class="p-eye">
      <path class="p-sclera" d="M318 339 C322 324 337 315 355 314 C372 313 385 319 392 329 C390 343 378 353 358 355 C338 356 324 350 318 339 Z" fill="#fbf7f4"/>
      <g clip-path="url(#makima-eyeR)">
        <g class="p-iris"><ellipse cx="355" cy="331" rx="17" ry="21" fill="#e2b13c"/><path d="M338 327.2 A17 21 0 0 1 372 327.2 C363.5 320.5 346.5 320.5 338 327.2 Z" fill="#7d4d0c" opacity=".6"/><path d="M343.1 338.4 C348.2 349.9 361.8 349.9 366.9 338.4 C360.1 343.6 349.9 343.6 343.1 338.4 Z" fill="#f6e2a4" opacity="0.85"/><ellipse cx="355" cy="332" rx="11.9" ry="14.7" class="p-accent" fill="#D4A017"/><ellipse cx="355" cy="332" rx="11.9" ry="14.7" fill="none" stroke="#a66a12" stroke-width="2"/><ellipse cx="355" cy="332" rx="7.8" ry="9.7" fill="#f0cf6a"/><ellipse cx="355" cy="332" rx="7.8" ry="9.7" fill="none" stroke="#a66a12" stroke-width="2"/><ellipse cx="355" cy="332" rx="4.1" ry="5" fill="#2a1606"/><ellipse cx="355" cy="331" rx="17" ry="21" fill="none" stroke="#7d4d0c" stroke-width="2.5"/><ellipse cx="348.9" cy="323" rx="2.6" ry="2.8" fill="#fff"/></g>
        <path d="M295 286 H415 V324 C379 314 331 314 295 330 Z" fill="#3a2030" opacity="0.2"/>
      </g>
      <path d="M311 342 C313 319 332 303 356 302 C373 301 387 307 396 316 L404 309 L401 322 C400 327 399 331 398 335 C390 322 375 314 356 314 C338 315 325 325 318 344 Z" fill="#0b0809"/>
      <path d="M326 351 C338 357 352 359 366 357 C378 355 386 347 390 340" fill="none" stroke="#0b0809" stroke-width="2.2" stroke-linecap="round" stroke-linejoin="round"/>
      <path d="M330 299 C344 292 366 291 384 297" fill="none" stroke="#0b0809" stroke-width="2" stroke-linecap="round" stroke-linejoin="round" opacity="0.7"/><path d="M388 343 L395 348" fill="none" stroke="#0b0809" stroke-width="1.9" stroke-linecap="round" stroke-linejoin="round"/>
    </g>
    <path d="M226 296 C240 289 256 287 271 290 L270 294 C256 291 241 292 228 299 Z M331 284 C345 276 364 274 385 281 L383 285 C363 279 346 280 333 288 Z" fill="#8e3b2e"/>
    <path d="M288 374 C286 381 284 387 283 391 C287 393 291 394 294 393" fill="none" stroke="#0b0809" stroke-width="2.2" stroke-linecap="round" stroke-linejoin="round"/>
    <path d="M279 428 C286 431 296 431 304 426 L307 423" fill="none" stroke="#0b0809" stroke-width="2.6" stroke-linecap="round" stroke-linejoin="round"/>
    <path d="M279 428 L276 425" fill="none" stroke="#0b0809" stroke-width="2" stroke-linecap="round" stroke-linejoin="round"/>
    <path d="M286 438 C291 440 296 440 300 438" fill="none" stroke="#0b0809" stroke-width="2" stroke-linecap="round" stroke-linejoin="round" opacity="0.6"/>
    <g class="p-hair-front">
      <use href="#makima-hf" fill="#c9614e"/>
      <g clip-path="url(#makima-hf-c)"><path d="M300 150 C350 156 400 186 420 240 L414 262 L406 262 C408 290 406 320 404 340 C396 380 388 420 390 470 L400 500 L460 500 L460 140 Z" fill="#4a1a2a" opacity="0.3"/><path d="M194 300 C196 360 204 420 222 490 L180 500 L180 300 Z M214 272 C212 320 214 360 222 400 C228 440 232 470 226 492 L240 492 C236 450 224 400 220 350 Z" fill="#4a1a2a" opacity="0.3"/><path d="M204 250 C216 206 252 176 300 166 C318 163 334 163 346 166 L338 176 L326 196 L318 178 L300 178 L290 204 L280 182 L262 190 L252 218 L246 194 L228 210 L218 238 L214 220 Z" fill="#e9c0b8"/></g>
      <use href="#makima-hf" fill="none" stroke="#0b0809" stroke-width="5" stroke-linejoin="round"/>
      <g clip-path="url(#makima-hf-c)"><path d="M297 238 C300 210 306 186 318 162 M283 312 C278 270 270 232 258 200 M254 302 C246 272 236 246 222 226 M310 312 C318 270 330 236 346 206 M338 306 C350 270 366 244 386 226 M372 300 C384 278 394 262 408 250 M226 298 C220 280 212 266 204 256 M200 330 C198 380 204 430 214 470 M420 320 C420 380 414 430 404 470" fill="none" stroke="#0b0809" stroke-width="2.4" stroke-linecap="round" stroke-linejoin="round"/></g>
      <use href="#makima-hf" fill="none" stroke="#0b0809" stroke-width="5" stroke-linejoin="round"/>
    </g>
  </g>
</svg>
