<svg xmlns="http://www.w3.org/2000/svg" viewBox="0 0 600 800">
<defs>
<clipPath id="yumeko-frame"><rect width="600" height="800"/></clipPath>
<clipPath id="yumeko-eyeL"><path d="M282 334.4 C280.3 317.7 266.4 305.2 250 304.4 C233.6 303.5 221.5 313.6 218 325.2 C218.9 340.3 229.2 352 248.3 353.6 C265.6 354.5 278.5 347.8 282 334.4 Z"/></clipPath>
<clipPath id="yumeko-eyeR"><path d="M318 334 C320 314 336 299 355 298 C374 297 388 309 392 323 C391 341 379 355 357 357 C337 358 322 350 318 334 Z"/></clipPath>
<path id="yumeko-hf" d="M190 478 C188 420 186 360 188 300 C190 240 210 196 246 172 C282 150 336 146 378 162 C418 178 440 222 444 280 C448 340 448 420 446 486 L388 480 C390 420 392 350 396 284 L372 287 L366 280 L360 288 L330 290 L325 283 L319 291 L286 293 L281 286 L275 294 L246 295 L241 289 L236 296 L216 297 C218 360 222 420 226 472 Z"/>
<clipPath id="yumeko-hf-c"><use href="#yumeko-hf"/></clipPath>
<path id="yumeko-hb" d="M196 236 C176 300 168 380 160 460 C152 560 136 680 120 820 L496 820 C484 690 470 560 462 470 C456 380 452 300 432 230 C410 176 360 154 304 154 C250 154 214 186 196 236 Z"/>
<clipPath id="yumeko-hb-c"><use href="#yumeko-hb"/></clipPath>
<path id="yumeko-torso" d="M262 440 C264 480 262 514 258 538 C222 558 164 572 124 590 C88 608 70 668 64 820 L542 820 C536 668 518 608 482 592 C442 572 386 558 352 538 C346 508 346 470 350 432 Z"/>
<clipPath id="yumeko-torso-c"><use href="#yumeko-torso"/></clipPath>
<path id="yumeko-shirt" d="M248 516 C214 550 160 572 124 590 C88 608 70 668 64 820 L542 820 C536 668 518 608 482 590 C446 572 394 550 360 516 C342 528 324 534 304 534 C284 534 266 528 248 516 Z"/>
<clipPath id="yumeko-shirt-c"><use href="#yumeko-shirt"/></clipPath>
<path id="yumeko-colL" d="M250 508 C246 530 240 552 230 572 L270 584 L302 548 C282 540 264 528 250 508 Z"/>
<clipPath id="yumeko-colL-c"><use href="#yumeko-colL"/></clipPath>
<path id="yumeko-colR" d="M358 508 C362 530 368 552 378 572 L338 584 L306 548 C326 540 344 528 358 508 Z"/>
<clipPath id="yumeko-colR-c"><use href="#yumeko-colR"/></clipPath>
<path id="yumeko-blzL" d="M236 546 C200 568 150 582 124 592 C88 610 70 668 64 820 L304 820 L304 724 C286 680 262 620 242 566 Z"/>
<clipPath id="yumeko-blzL-c"><use href="#yumeko-blzL"/></clipPath>
<path id="yumeko-blzR" d="M372 546 C408 568 458 582 484 592 C520 610 538 668 544 820 L304 820 L304 724 C322 680 346 620 366 566 Z"/>
<clipPath id="yumeko-blzR-c"><use href="#yumeko-blzR"/></clipPath>
<path id="yumeko-lapL" d="M240 556 C258 612 280 670 304 724 C300 690 290 650 278 610 L262 602 L250 606 L236 588 Z"/>
<clipPath id="yumeko-lapL-c"><use href="#yumeko-lapL"/></clipPath>
<path id="yumeko-lapR" d="M368 556 C350 612 328 670 304 724 C308 690 318 650 330 610 L346 602 L358 606 L372 588 Z"/>
<clipPath id="yumeko-lapR-c"><use href="#yumeko-lapR"/></clipPath>
<path id="yumeko-tieA" d="M290 540 L330 602 L322 610 L318 600 L310 612 L282 552 Z"/>
<clipPath id="yumeko-tieA-c"><use href="#yumeko-tieA"/></clipPath>
<path id="yumeko-tieB" d="M318 540 L278 602 L286 610 L290 600 L298 612 L326 552 Z"/>
<clipPath id="yumeko-tieB-c"><use href="#yumeko-tieB"/></clipPath>
<path id="yumeko-knot" d="M295 547 C297 541 311 541 313 547 C314 555 311 560 304 561 C297 560 294 555 295 547 Z"/>
<clipPath id="yumeko-knot-c"><use href="#yumeko-knot"/></clipPath>
<path id="yumeko-fallR" d="M414 440 C420 560 428 680 432 820 L508 820 C500 700 488 560 478 440 Z"/>
<clipPath id="yumeko-fallR-c"><use href="#yumeko-fallR"/></clipPath>
<path id="yumeko-fallL" d="M166 440 C160 560 150 680 140 820 L200 820 C206 700 212 560 214 440 Z"/>
<clipPath id="yumeko-fallL-c"><use href="#yumeko-fallL"/></clipPath>
<path id="yumeko-face" d="M302 178 C358 178 400 216 404 272 C407 300 406 326 403 346 C398 376 388 400 372 420 C350 448 320 464 296 470 C288 472 280 471 274 467 C252 452 230 432 218 408 C208 386 203 364 202 344 C200 306 200 290 204 274 C214 214 250 178 302 178 Z"/>
<clipPath id="yumeko-face-c"><use href="#yumeko-face"/></clipPath>
</defs>
<g clip-path="url(#yumeko-frame)"><g class="p-hair-back">
<use href="#yumeko-hb" fill="#231c27"/>
<g clip-path="url(#yumeko-hb-c)"><path d="M0 0H600V820H0Z" fill="#000" opacity="0.45"/><path d="M150 520 C170 400 180 300 210 220 L216 240 C200 320 196 420 180 540 C172 640 168 740 170 820 L150 820 Z" fill="#5b4c68" opacity="0.5"/></g>
<use href="#yumeko-hb" fill="none" stroke="#0b0809" stroke-width="5" stroke-linejoin="round"/>
<g clip-path="url(#yumeko-hb-c)"><path d="M180 340 C172 460 160 600 150 760 M440 300 C452 420 464 560 474 760 M458 520 C462 620 470 720 476 820" fill="none" stroke="#0b0809" stroke-width="2.4" stroke-linecap="round" stroke-linejoin="round"/></g>
</g></g>
<g clip-path="url(#yumeko-frame)"><g class="p-body">
<use href="#yumeko-torso" fill="#F8E7DE"/>
<g clip-path="url(#yumeko-torso-c)"><path d="M250 430 L366 416 L366 470 C340 488 300 496 250 490 Z" fill="#4a1a2a" opacity="0.3"/><path d="M356 470 C346 498 336 530 324 562 C344 558 364 550 384 542 L384 470 Z" fill="#4a1a2a" opacity="0.22"/></g>
<use href="#yumeko-torso" fill="none" stroke="#0b0809" stroke-width="5" stroke-linejoin="round"/>
<use href="#yumeko-shirt" fill="#F4F1EC"/>
<g clip-path="url(#yumeko-shirt-c)"><path d="M360 516 C344 540 330 560 318 580 L330 700 L420 700 L420 516 Z" fill="#4a1a2a" opacity="0.16"/><path d="M304 534 C324 534 342 528 360 516 L368 530 C350 544 326 552 304 552 Z" fill="#4a1a2a" opacity="0.14"/></g>
<use href="#yumeko-shirt" fill="none" stroke="#0b0809" stroke-width="5" stroke-linejoin="round"/>
<path d="M304 560 L304 820" fill="none" stroke="#0b0809" stroke-width="2.2" stroke-linecap="round" stroke-linejoin="round" opacity="0.7"/>
<path d="M300 610 a4 4 0 1 0 8 0 a4 4 0 1 0 -8 0 Z" fill="#e8e2da" stroke="#0b0809" stroke-width="1.6"/>
<path d="M300 660 a4 4 0 1 0 8 0 a4 4 0 1 0 -8 0 Z" fill="#e8e2da" stroke="#0b0809" stroke-width="1.6"/>
<use href="#yumeko-blzL" fill="#B11E2E"/>
<g clip-path="url(#yumeko-blzL-c)"><path d="M64 820 C70 700 86 640 120 604 C108 660 104 740 108 820 Z" fill="#4a1a2a" opacity="0.3"/><path d="M240 560 C262 620 284 680 304 724 L304 760 C278 712 256 660 236 600 Z" fill="#4a1a2a" opacity="0.35"/></g>
<use href="#yumeko-blzL" fill="none" stroke="#0b0809" stroke-width="5" stroke-linejoin="round"/>
<use href="#yumeko-blzR" fill="#B11E2E"/>
<g clip-path="url(#yumeko-blzR-c)"><path d="M430 590 C480 616 506 690 512 820 L560 820 L560 590 Z" fill="#4a1a2a" opacity="0.35"/><path d="M366 566 C346 620 322 680 304 724 L304 820 L330 820 C334 740 350 670 374 600 Z" fill="#4a1a2a" opacity="0.3"/></g>
<use href="#yumeko-blzR" fill="none" stroke="#0b0809" stroke-width="5" stroke-linejoin="round"/>
<use href="#yumeko-lapL" fill="#B11E2E"/>
<g clip-path="url(#yumeko-lapL-c)"><path d="M278 610 C290 650 300 690 304 724 L296 724 C284 690 272 650 262 606 Z" fill="#4a1a2a" opacity="0.3"/></g>
<use href="#yumeko-lapL" fill="none" stroke="#0b0809" stroke-width="4.5" stroke-linejoin="round"/>
<use href="#yumeko-lapR" fill="#B11E2E"/>
<g clip-path="url(#yumeko-lapR-c)"><path d="M368 556 C350 612 328 670 304 724 L320 724 C334 670 352 616 376 566 Z" fill="#4a1a2a" opacity="0.35"/></g>
<use href="#yumeko-lapR" fill="none" stroke="#0b0809" stroke-width="4.5" stroke-linejoin="round"/>
<path d="M304 724 L304 820" fill="none" stroke="#0b0809" stroke-width="2.5" stroke-linecap="round" stroke-linejoin="round"/>
<use href="#yumeko-colL" fill="#F4F1EC"/>
<g clip-path="url(#yumeko-colL-c)"><path d="M250 508 C264 528 282 540 302 548 L296 556 C276 548 258 532 250 508 Z" fill="#4a1a2a" opacity="0.14"/></g>
<use href="#yumeko-colL" fill="none" stroke="#0b0809" stroke-width="4.5" stroke-linejoin="round"/>
<use href="#yumeko-colR" fill="#F4F1EC"/>
<g clip-path="url(#yumeko-colR-c)"><path d="M358 508 C362 534 368 556 378 572 L360 578 C352 556 350 532 358 508 Z" fill="#4a1a2a" opacity="0.18"/></g>
<use href="#yumeko-colR" fill="none" stroke="#0b0809" stroke-width="4.5" stroke-linejoin="round"/>
<use href="#yumeko-tieB" fill="#1d1a1c"/>
<g clip-path="url(#yumeko-tieB-c)"><path d="M318 540 L326 552 L298 612 L290 600 Z" fill="#000" opacity="0.3"/></g>
<use href="#yumeko-tieB" fill="none" stroke="#0b0809" stroke-width="4" stroke-linejoin="round"/>
<use href="#yumeko-tieA" fill="#1d1a1c"/>
<g clip-path="url(#yumeko-tieA-c)"><path d="M290 540 L304 562 L300 572 L284 548 Z" fill="#3d383b"/></g>
<use href="#yumeko-tieA" fill="none" stroke="#0b0809" stroke-width="4" stroke-linejoin="round"/>
<use href="#yumeko-knot" fill="#1d1a1c"/>
<g clip-path="url(#yumeko-knot-c)"><path d="M297 547 C299 543 306 542 310 544 L301 555 Z" fill="#3d383b"/></g>
<use href="#yumeko-knot" fill="none" stroke="#0b0809" stroke-width="4" stroke-linejoin="round"/>
<use href="#yumeko-fallL" fill="#231c27"/>
<g clip-path="url(#yumeko-fallL-c)"><path d="M196 440 C194 560 188 700 182 820 L220 820 L220 440 Z" fill="#000" opacity="0.42"/><path d="M184 470 L230 466 L230 492 L184 496 Z" fill="#000" opacity="0.42"/><path d="M168 520 C166 600 158 700 150 820 L158 820 C166 700 174 600 176 520 Z" fill="#5b4c68" opacity="0.6"/><path d="M186 520 C184 620 178 720 172 820" fill="none" stroke="#0b0809" stroke-width="2.4" stroke-linecap="round" stroke-linejoin="round"/></g>
<use href="#yumeko-fallL" fill="none" stroke="#0b0809" stroke-width="5" stroke-linejoin="round"/>
<use href="#yumeko-fallR" fill="#231c27"/>
<g clip-path="url(#yumeko-fallR-c)"><path d="M456 440 C468 560 478 700 484 820 L520 820 L520 440 Z" fill="#000" opacity="0.42"/><path d="M396 474 L452 480 L452 504 L396 498 Z" fill="#000" opacity="0.42"/><path d="M424 520 C428 600 434 700 440 820 L450 820 C444 700 438 600 434 520 Z" fill="#5b4c68" opacity="0.6"/><path d="M444 520 C450 620 456 720 462 820 M466 560 C472 640 478 720 482 820" fill="none" stroke="#0b0809" stroke-width="2.4" stroke-linecap="round" stroke-linejoin="round"/></g>
<use href="#yumeko-fallR" fill="none" stroke="#0b0809" stroke-width="5" stroke-linejoin="round"/>
</g></g>
<g class="p-head">
<path d="M398 332 C404 318 422 316 428 330 C433 346 426 366 416 378 C411 385 402 385 398 380 Z" fill="#F8E7DE" stroke="#0b0809" stroke-width="4.5" stroke-linejoin="round"/>
<use href="#yumeko-face" fill="#F8E7DE"/>
<g clip-path="url(#yumeko-face-c)"><path d="M402 298 L378 301 L372 294 L366 302 L336 304 L331 297 L325 305 L292 307 L287 300 L281 308 L252 309 L247 303 L242 310 L222 311 L180 300 L180 160 L420 160 L420 296 Z" fill="#4a1a2a" opacity="0.25"/><path d="M392 300 C402 344 396 388 374 420 C352 448 324 464 292 474 L420 474 L420 300 Z" fill="#4a1a2a" opacity="0.25"/><path d="M287 368 L297 389 L289 393 Z" fill="#4a1a2a" opacity="0.25"/></g>
<use href="#yumeko-face" fill="none" stroke="#0b0809" stroke-width="5" stroke-linejoin="round"/>
<g class="p-eye">
<path class="p-sclera" d="M282 334.4 C280.3 317.7 266.4 305.2 250 304.4 C233.6 303.5 221.5 313.6 218 325.2 C218.9 340.3 229.2 352 248.3 353.6 C265.6 354.5 278.5 347.8 282 334.4 Z" fill="#fbf7f4"/>
<g clip-path="url(#yumeko-eyeL)"><g class="p-iris">
<ellipse cx="250" cy="332" rx="16" ry="20" fill="#C8102E"/>
<path d="M234 328.4 A16 20 0 0 1 266 328.4 C258 322 242 322 234 328.4 Z" fill="#5a0816" opacity=".6"/>
<path d="M238.8 339 C243.6 350 256.4 350 261.2 339 C254.8 344 245.2 344 238.8 339 Z" fill="#ff8a98" opacity="0.85"/>
<ellipse cx="250" cy="333" rx="9.9" ry="13.2" fill="none" stroke="#ff5a6e" stroke-width="2.6" opacity=".95"/>
<ellipse cx="250" cy="333" rx="4.8" ry="7.6" fill="#2a0309"/>
<ellipse cx="250" cy="332" rx="13.4" ry="17.2" fill="none" stroke="#7a0a1c" stroke-width="1.6" opacity=".7"/>
<ellipse cx="250" cy="332" rx="16" ry="20" fill="none" stroke="#5a0816" stroke-width="2.5"/>
<ellipse cx="244.2" cy="324.4" rx="4.8" ry="5.4" fill="#fff"/>
<circle cx="256.7" cy="339.6" r="2.4" fill="#fff"/>
</g><path d="M190 282 H310 V320 C274 310 226 310 190 326 Z" fill="#3a2030" opacity="0.16"/></g>
<path d="M289.8 339.4 C288.1 315.2 269.9 296.9 248.3 295.2 C232.7 294.4 220.6 300.2 212.8 308.5 L206.7 299.4 L207.6 311.9 L199.8 309.4 L210.2 322.7 C211.1 326.9 211.9 330.3 212.8 333.6 C220.6 317.7 232.7 307.7 248.3 307.7 C264.7 308.5 276.8 320.2 282.9 341.1 Z" fill="#0b0809"/>
<path d="M275.9 349.5 C265.6 355.3 252.6 357 240.5 355.3 C230.1 353.6 222.3 347 218.9 339.4" fill="none" stroke="#0b0809" stroke-width="2.2" stroke-linecap="round" stroke-linejoin="round"/>
<path d="M273.4 298.5 C259.5 291 238.8 289.3 221.5 295.2" fill="none" stroke="#0b0809" stroke-width="2" stroke-linecap="round" stroke-linejoin="round" opacity="0.7"/>
<path d="M219 342 L211 348" fill="none" stroke="#0b0809" stroke-width="1.8" stroke-linecap="round" stroke-linejoin="round"/>
</g>
<g class="p-eye">
<path class="p-sclera" d="M318 334 C320 314 336 299 355 298 C374 297 388 309 392 323 C391 341 379 355 357 357 C337 358 322 350 318 334 Z" fill="#fbf7f4"/>
<g clip-path="url(#yumeko-eyeR)"><g class="p-iris">
<ellipse cx="355" cy="330" rx="18" ry="22" fill="#C8102E"/>
<path d="M337 326 A18 22 0 0 1 373 326 C364 319 346 319 337 326 Z" fill="#5a0816" opacity=".6"/>
<path d="M342.4 337.7 C347.8 349.8 362.2 349.8 367.6 337.7 C360.4 343.2 349.6 343.2 342.4 337.7 Z" fill="#ff8a98" opacity="0.85"/>
<ellipse cx="355" cy="331" rx="11.2" ry="14.5" fill="none" stroke="#ff5a6e" stroke-width="2.6" opacity=".95"/>
<ellipse cx="355" cy="331" rx="5.4" ry="8.4" fill="#2a0309"/>
<ellipse cx="355" cy="330" rx="15.1" ry="18.9" fill="none" stroke="#7a0a1c" stroke-width="1.6" opacity=".7"/>
<ellipse cx="355" cy="330" rx="18" ry="22" fill="none" stroke="#5a0816" stroke-width="2.5"/>
<ellipse cx="348.5" cy="321.6" rx="5.4" ry="5.9" fill="#fff"/>
<circle cx="362.6" cy="338.4" r="2.4" fill="#fff"/>
</g><path d="M295 280 H415 V318 C379 308 331 308 295 324 Z" fill="#3a2030" opacity="0.16"/></g>
<path d="M309 340 C311 311 332 289 357 287 C375 286 389 293 398 303 L405 292 L404 307 L413 304 L401 320 C400 325 399 329 398 333 C389 314 375 302 357 302 C338 303 324 317 317 342 Z" fill="#0b0809"/>
<path d="M325 352 C337 359 352 361 366 359 C378 357 387 349 391 340" fill="none" stroke="#0b0809" stroke-width="2.2" stroke-linecap="round" stroke-linejoin="round"/>
<path d="M328 291 C344 282 368 280 388 287" fill="none" stroke="#0b0809" stroke-width="2" stroke-linecap="round" stroke-linejoin="round" opacity="0.7"/>
<path d="M390 343 L398 349" fill="none" stroke="#0b0809" stroke-width="1.8" stroke-linecap="round" stroke-linejoin="round"/>
</g>
<g class="p-accent"><path d="M322 378 C338 362 388 362 402 376 C392 394 338 396 322 378 Z" fill="#C8102E" opacity="0.42"/><path d="M216 382 C224 370 262 370 272 381 C262 394 228 395 216 382 Z" fill="#C8102E" opacity="0.36"/><path d="M276 380 C284 376 296 376 304 380 C296 384 284 384 276 380 Z" fill="#C8102E" opacity="0.25"/></g>
<path d="M334 386 L344 370 M347 388 L357 370 M360 388 L370 370 M373 388 L383 370 M386 386 L394 372 M228 388 L236 374 M240 389 L248 374 M252 389 L260 375" fill="none" stroke="#8e0c22" stroke-width="2" stroke-linecap="round" stroke-linejoin="round" opacity="0.7"/>
<path d="M288 374 C286 381 284 387 283 391 C287 393 291 394 294 393" fill="none" stroke="#0b0809" stroke-width="2.3" stroke-linecap="round" stroke-linejoin="round"/>
<path d="M270 422 C284 426 300 425 314 419 C310 432 298 442 288 442 C278 441 272 432 270 422 Z" fill="#6b1a2c"/>
<path d="M274 424 C286 427 300 426 311 421 L309 426 C298 430 286 430 276 428 Z" fill="#fff"/>
<path d="M280 436 C286 441 294 441 300 437 C296 434 286 433 280 436 Z" fill="#e8798f" opacity="0.9"/>
<path d="M270 422 C284 426 300 425 314 419 C310 432 298 442 288 442 C278 441 272 432 270 422 Z" fill="none" stroke="#0b0809" stroke-width="2.4" stroke-linejoin="round"/>
<path d="M266 420 L271 423 M313 420 L318 416" fill="none" stroke="#0b0809" stroke-width="2.2" stroke-linecap="round" stroke-linejoin="round"/>
<path d="M284 447 C288 449 294 449 298 447 C295 445 288 445 284 447 Z" fill="#fff" opacity="0.85"/>
<g class="p-hair-front">
<use href="#yumeko-hf" fill="#231c27"/>
<g clip-path="url(#yumeko-hf-c)"><path d="M378 162 C410 190 430 230 436 290 L440 486 L470 486 L470 150 Z" fill="#000" opacity="0.42"/><path d="M396 284 C392 350 390 420 388 480 L404 480 C404 420 404 350 408 288 Z" fill="#000" opacity="0.42"/><path d="M216 297 C218 360 222 420 226 472 L212 474 C208 420 206 360 206 300 Z" fill="#000" opacity="0.42"/><path d="M196 262 C210 214 248 182 300 174 C332 170 362 176 384 188 L380 200 L366 196 L360 214 L350 198 L330 196 L322 218 L314 196 L292 198 L284 222 L276 202 L256 208 L246 232 L242 212 L226 226 L218 252 L212 236 L202 256 Z" fill="#5b4c68"/><path d="M424 240 C432 262 436 290 436 320 L430 316 L428 296 L422 306 C424 280 424 260 424 240 Z" fill="#5b4c68" opacity="0.55"/></g>
<use href="#yumeko-hf" fill="none" stroke="#0b0809" stroke-width="5" stroke-linejoin="round"/>
<g clip-path="url(#yumeko-hf-c)"><path d="M246 295 C246 260 252 232 266 210 M281 286 C284 252 294 226 310 206 M325 283 C330 252 340 228 356 210 M366 280 C374 252 386 232 398 220 M236 296 C230 270 228 250 230 230" fill="none" stroke="#0b0809" stroke-width="2.4" stroke-linecap="round" stroke-linejoin="round"/><path d="M206 310 C204 370 206 420 210 470 M420 300 C424 370 426 420 424 480 M430 330 C432 400 434 440 434 480" fill="none" stroke="#0b0809" stroke-width="2.4" stroke-linecap="round" stroke-linejoin="round"/><path d="M260 200 Q246 214 236 232 M340 186 Q332 196 326 210" fill="none" stroke="#6c5c7a" stroke-width="2" stroke-linecap="round" stroke-linejoin="round" opacity="0.55"/></g>
</g>
</g>
</svg>
