<svg xmlns="http://www.w3.org/2000/svg" viewBox="0 0 200 200" fill="none" stroke="currentColor" stroke-width="3" stroke-linecap="round" stroke-linejoin="round"><g class="sg-frame"><circle cx="100" cy="100" r="88"/><circle cx="100" cy="100" r="82" stroke-width="1.5"/><path fill="currentColor" stroke="none" d="M100 7L104.5 15L100 23L95.5 15ZM185 95.5L193 100L185 104.5L177 100ZM100 177L104.5 185L100 193L95.5 185ZM15 95.5L23 100L15 104.5L7 100Z"/><g fill="currentColor" stroke="none"><circle cx="160.1" cy="39.9" r="1.5"/><circle cx="160.1" cy="160.1" r="1.5"/><circle cx="39.9" cy="160.1" r="1.5"/><circle cx="39.9" cy="39.9" r="1.5"/></g></g><g class="sg-glyph"><path d="M72 44V150M128 44V150"/><g stroke-width="1.5"><path d="M76.5 48V150M123.5 48V150"/></g><path d="M64 42L136 42"/><g stroke-width="1.5"><path d="M70 36L130 36"/></g><path d="M58 152L142 152"/><g stroke-width="1.5"><path d="M66 159L134 159"/></g><g fill="currentColor" stroke="none"><path d="M100 26L103.5 31L100 36L96.5 31Z"/></g><g stroke-width="1.5"><path d="M100 42L100 47"/></g><g fill="currentColor" stroke="none"><path d="M93 47H107V52H93Z"/></g><path d="M79 52H121V65L79 81Z"/><g stroke-width="1.5"><path d="M82.5 74.5L117.5 61"/></g><path d="M76.5 116H123.5M76.5 140H123.5"/><circle cx="100" cy="128" r="8.5"/><g stroke-width="1.5"><path d="M76.5 128H91.5M108.5 128H123.5"/></g><g fill="currentColor" stroke="none"><circle cx="82" cy="122" r="1.4"/><circle cx="118" cy="122" r="1.4"/><circle cx="82" cy="134" r="1.4"/><circle cx="118" cy="134" r="1.4"/></g></g></svg>
