<svg xmlns="http://www.w3.org/2000/svg" viewBox="0 0 200 200" fill="none" stroke="currentColor" stroke-width="3" stroke-linecap="round" stroke-linejoin="round"><g class="sg-frame"><circle cx="100" cy="100" r="88"/><circle cx="100" cy="100" r="82" stroke-width="1.5"/><path fill="currentColor" stroke="none" d="M100 7L104.5 15L100 23L95.5 15ZM185 95.5L193 100L185 104.5L177 100ZM100 177L104.5 185L100 193L95.5 185ZM15 95.5L23 100L15 104.5L7 100Z"/><g fill="currentColor" stroke="none"><circle cx="160.1" cy="39.9" r="1.5"/><circle cx="160.1" cy="160.1" r="1.5"/><circle cx="39.9" cy="160.1" r="1.5"/><circle cx="39.9" cy="39.9" r="1.5"/></g></g><g class="sg-glyph"><path d="M74 36L126 36"/><g stroke-width="1.5"><path d="M80 31L120 31"/></g><path d="M100 36V52"/><g stroke-width="1.5"><path d="M97.6 41L102.4 38.6"/><path d="M97.6 46L102.4 43.6"/></g><g stroke-width="1.5"><path d="M100 52L95.5 58M100 52L98.5 59M100 52L101.5 59M100 52L104.5 57.5"/></g><g stroke-width="1.5"><path d="M86 61L80 59M114 61L120 59M88 66.5L83 69.5M112 66.5L117 69.5"/></g><g stroke-width="1.5"><path d="M100 71L95.5 65M100 71L98.5 64M100 71L101.5 64M100 71L104.5 65.5"/></g><path d="M100 71V76"/><path d="M94.5 76Q90.5 78.4 94.5 80.8Q90.5 83.2 94.5 85.6Q90.5 88 94.5 90.4Q90.5 92.8 94.5 95.2Q90.5 97.6 94.5 100Q90.5 102.4 94.5 104.8M105.5 76Q109.5 78.4 105.5 80.8Q109.5 83.2 105.5 85.6Q109.5 88 105.5 90.4Q109.5 92.8 105.5 95.2Q109.5 97.6 105.5 100Q109.5 102.4 105.5 104.8"/><path d="M94.5 76Q100 73.5 105.5 76M94.5 104.8Q100 107.3 105.5 104.8"/><g stroke-width="1.5"><path d="M94.5 80.8Q100 82.6 105.5 80.8"/><path d="M94.5 85.6Q100 87.4 105.5 85.6"/><path d="M94.5 90.4Q100 92.2 105.5 90.4"/><path d="M94.5 95.2Q100 97 105.5 95.2"/><path d="M94.5 100Q100 101.8 105.5 100"/></g><path d="M95 105C68 113 60 142 72 157C84 172 116 172 128 157C140 142 132 113 105 105"/><g stroke-width="1.5"><path d="M95.9 111.3C73.76 117.86 67.2 141.64 77.04 153.94C86.88 166.24 113.12 166.24 122.96 153.94C132.8 141.64 126.24 117.86 104.1 111.3"/><path d="M89.85 106.87L87.88 114.77"/><path d="M82.07 111.3L82.23 119"/><path d="M75.86 116.92L77.87 124.05"/><path d="M71.22 123.41L74.81 129.64"/><path d="M68.17 130.41L73.05 135.51"/><path d="M66.71 137.61L72.61 141.37"/><path d="M66.85 144.66L73.48 146.97"/><path d="M68.62 151.23L75.69 152.01"/><path d="M72 157L78.63 155.69"/><path d="M76.16 161.05L83.17 159.07"/><path d="M82.21 164.64L88.61 161.43"/><path d="M89.19 167L94.62 162.8"/><path d="M96.71 168.14L100.9 163.15"/><path d="M104.39 168.05L107.14 162.51"/><path d="M111.85 166.74L113.02 160.86"/><path d="M118.72 164.2L118.23 158.2"/><path d="M124.61 160.44L122.45 154.54"/><path d="M128.58 156.24L125.08 150.64"/><path d="M131.74 150.34L126.9 145.41"/><path d="M133.27 143.67L127.4 139.71"/><path d="M133.18 136.58L126.58 133.82"/><path d="M131.5 129.39L124.45 128"/><path d="M128.22 122.44L121.02 122.54"/><path d="M123.35 116.06L116.29 117.7"/><path d="M116.91 110.59L110.27 113.76"/></g></g></svg>
